<svg width="301" height="189" viewBox="0 0 301 189" fill="none" xmlns="http://www.w3.org/2000/svg">
<rect x="0.62207" y="0.715576" width="300" height="188" rx="20" fill="#49B96D"/>
<rect x="16.6221" y="17.7156" width="267" height="155" rx="11" fill="#49B96D" stroke="white" stroke-width="2"/>
<path d="M59.6952 59.4176V74.5756H55.5872V59.4176H59.6952ZM59.6952 53.3856V57.3376H55.5872V53.3856H59.6952ZM69.2283 61.0036C69.5056 60.6742 69.8436 60.3796 70.2423 60.1196C70.6583 59.8596 71.1003 59.6429 71.5683 59.4696C72.0363 59.2789 72.5216 59.1402 73.0243 59.0536C73.5269 58.9496 74.0123 58.8976 74.4803 58.8976C75.4336 58.8976 76.3263 59.0449 77.1583 59.3396C77.9903 59.6342 78.7183 60.0502 79.3423 60.5876C79.9663 61.1076 80.4516 61.7489 80.7983 62.5116C81.1623 63.2569 81.3443 64.0889 81.3443 65.0076V74.5756H77.2363V66.4116C77.2363 64.8862 76.9069 63.7856 76.2483 63.1096C75.5896 62.4162 74.6883 62.0696 73.5443 62.0696C72.5563 62.0696 71.6896 62.4076 70.9443 63.0836C70.2163 63.7422 69.7396 64.6609 69.5143 65.8396V74.5756H65.4063V59.4176H68.8903L69.2283 61.0036ZM92.2854 59.4176H96.0814V62.5896H92.2854V69.7656C92.2854 70.2856 92.4154 70.6929 92.6754 70.9876C92.9527 71.2649 93.3687 71.4036 93.9234 71.4036H96.3414V74.5756H92.2074C91.6527 74.5756 91.124 74.4889 90.6214 74.3156C90.136 74.1422 89.7114 73.8909 89.3474 73.5616C88.9834 73.2322 88.6974 72.8249 88.4894 72.3396C88.2814 71.8716 88.1774 71.3342 88.1774 70.7276V62.5896H85.1094V59.4176H88.1774V54.1136H92.2854V59.4176ZM104.052 61.1076C104.416 60.5702 104.919 60.1542 105.56 59.8596C106.201 59.5649 106.955 59.4176 107.822 59.4176H111.046L110.396 62.5896H107.146C106.747 62.5896 106.366 62.6936 106.002 62.9016C105.655 63.0922 105.343 63.3609 105.066 63.7076C104.806 64.0369 104.598 64.4182 104.442 64.8516C104.286 65.2849 104.208 65.7356 104.208 66.2036V74.5756H100.1V59.4176H103.688L104.052 61.1076ZM122.467 72.2096C123.143 72.2096 123.775 72.0796 124.365 71.8196C124.954 71.5769 125.457 71.2302 125.873 70.7796C126.306 70.3116 126.644 69.7656 126.887 69.1416C127.129 68.5002 127.251 67.7982 127.251 67.0356C127.251 66.2556 127.129 65.5449 126.887 64.9036C126.644 64.2449 126.306 63.6902 125.873 63.2396C125.457 62.7889 124.954 62.4422 124.365 62.1996C123.775 61.9396 123.143 61.8096 122.467 61.8096C121.773 61.8096 121.132 61.9396 120.543 62.1996C119.971 62.4596 119.468 62.8236 119.035 63.2916C118.619 63.7422 118.289 64.2882 118.047 64.9296C117.804 65.5709 117.683 66.2729 117.683 67.0356C117.683 67.7982 117.804 68.5002 118.047 69.1416C118.289 69.7656 118.619 70.3116 119.035 70.7796C119.468 71.2302 119.971 71.5769 120.543 71.8196C121.132 72.0796 121.773 72.2096 122.467 72.2096ZM113.601 67.0356C113.601 65.7529 113.835 64.5916 114.303 63.5516C114.771 62.5116 115.403 61.6276 116.201 60.8996C117.015 60.1716 117.96 59.6169 119.035 59.2356C120.109 58.8369 121.253 58.6376 122.467 58.6376C123.663 58.6376 124.798 58.8369 125.873 59.2356C126.947 59.6169 127.883 60.1716 128.681 60.8996C129.495 61.6276 130.137 62.5116 130.605 63.5516C131.09 64.5916 131.333 65.7529 131.333 67.0356C131.333 68.3182 131.09 69.4709 130.605 70.4936C130.137 71.5162 129.495 72.3829 128.681 73.0936C127.883 73.8216 126.947 74.3762 125.873 74.7576C124.798 75.1562 123.663 75.3556 122.467 75.3556C121.253 75.3556 120.109 75.1562 119.035 74.7576C117.96 74.3762 117.015 73.8216 116.201 73.0936C115.403 72.3829 114.771 71.5162 114.303 70.4936C113.835 69.4709 113.601 68.3182 113.601 67.0356ZM148.228 54.1136H152.336V74.5756H148.852L148.358 72.5736C148.046 72.9722 147.665 73.3276 147.214 73.6396C146.764 73.9689 146.27 74.2376 145.732 74.4456C145.212 74.6709 144.666 74.8356 144.094 74.9396C143.522 75.0609 142.959 75.1129 142.404 75.0956C141.347 75.0782 140.342 74.8616 139.388 74.4456C138.452 74.0296 137.62 73.4662 136.892 72.7556C136.182 72.0449 135.618 71.2042 135.202 70.2336C134.786 69.2456 134.578 68.1796 134.578 67.0356C134.578 65.8569 134.795 64.7736 135.228 63.7856C135.662 62.7802 136.242 61.9222 136.97 61.2116C137.698 60.4836 138.53 59.9202 139.466 59.5216C140.402 59.1056 141.373 58.8976 142.378 58.8976C143.609 58.8976 144.727 59.1056 145.732 59.5216C146.738 59.9202 147.57 60.4836 148.228 61.2116V54.1136ZM143.21 71.9236C143.834 71.9236 144.424 71.8109 144.978 71.5856C145.533 71.3602 146.01 71.0396 146.408 70.6236C146.824 70.1902 147.145 69.6702 147.37 69.0636C147.613 68.4569 147.734 67.7809 147.734 67.0356C147.734 66.2556 147.613 65.5622 147.37 64.9556C147.145 64.3489 146.824 63.8376 146.408 63.4216C146.01 62.9882 145.533 62.6589 144.978 62.4336C144.424 62.2082 143.834 62.0956 143.21 62.0956C142.586 62.0956 141.997 62.2082 141.442 62.4336C140.888 62.6589 140.402 62.9882 139.986 63.4216C139.588 63.8376 139.267 64.3489 139.024 64.9556C138.799 65.5622 138.686 66.2556 138.686 67.0356C138.686 67.7809 138.799 68.4569 139.024 69.0636C139.267 69.6702 139.588 70.1902 139.986 70.6236C140.402 71.0396 140.888 71.3602 141.442 71.5856C141.997 71.8109 142.586 71.9236 143.21 71.9236ZM169.486 72.9896C169.209 73.3189 168.862 73.6136 168.446 73.8736C168.048 74.1336 167.614 74.3502 167.146 74.5236C166.678 74.7142 166.193 74.8529 165.69 74.9396C165.205 75.0436 164.728 75.0956 164.26 75.0956C163.307 75.0956 162.414 74.9482 161.582 74.6536C160.75 74.3589 160.022 73.9429 159.398 73.4056C158.774 72.8856 158.28 72.2529 157.916 71.5076C157.57 70.7449 157.396 69.9042 157.396 68.9856V59.4176H161.504V67.5816C161.504 69.1069 161.834 70.2162 162.492 70.9096C163.151 71.5856 164.052 71.9236 165.196 71.9236C166.184 71.9236 167.042 71.5942 167.77 70.9356C168.516 70.2596 169.001 69.3322 169.226 68.1536V59.4176H173.334V74.5756H169.85L169.486 72.9896ZM186.394 61.8096C185.666 61.8096 184.998 61.9396 184.392 62.1996C183.802 62.4596 183.291 62.8236 182.858 63.2916C182.424 63.7422 182.086 64.2882 181.844 64.9296C181.601 65.5536 181.48 66.2469 181.48 67.0096C181.48 67.7376 181.601 68.4136 181.844 69.0376C182.104 69.6616 182.45 70.2076 182.884 70.6756C183.334 71.1436 183.854 71.5076 184.444 71.7676C185.05 72.0449 185.7 72.1836 186.394 72.1836C187.364 72.1836 188.24 71.9582 189.02 71.5076C189.817 71.0569 190.458 70.4156 190.944 69.5836L193.44 71.7676C192.642 72.8596 191.646 73.7262 190.45 74.3676C189.254 75.0262 187.78 75.3556 186.03 75.3556C184.834 75.3556 183.707 75.1476 182.65 74.7316C181.61 74.3329 180.691 73.7609 179.894 73.0156C179.114 72.2876 178.498 71.4122 178.048 70.3896C177.597 69.3669 177.372 68.2402 177.372 67.0096C177.372 65.7789 177.588 64.6522 178.022 63.6296C178.472 62.6069 179.079 61.7229 179.842 60.9776C180.622 60.2322 181.54 59.6602 182.598 59.2616C183.655 58.8456 184.799 58.6376 186.03 58.6376C189.288 58.6376 191.767 59.8336 193.466 62.2256L190.97 64.3576C190.519 63.5256 189.878 62.8929 189.046 62.4596C188.231 62.0262 187.347 61.8096 186.394 61.8096ZM201.873 59.4176V74.5756H197.765V59.4176H201.873ZM201.873 53.3856V57.3376H197.765V53.3856H201.873ZM211.406 61.0036C211.683 60.6742 212.021 60.3796 212.42 60.1196C212.836 59.8596 213.278 59.6429 213.746 59.4696C214.214 59.2789 214.699 59.1402 215.202 59.0536C215.704 58.9496 216.19 58.8976 216.658 58.8976C217.611 58.8976 218.504 59.0449 219.336 59.3396C220.168 59.6342 220.896 60.0502 221.52 60.5876C222.144 61.1076 222.629 61.7489 222.976 62.5116C223.34 63.2569 223.522 64.0889 223.522 65.0076V74.5756H219.414V66.4116C219.414 64.8862 219.084 63.7856 218.426 63.1096C217.767 62.4162 216.866 62.0696 215.722 62.0696C214.734 62.0696 213.867 62.4076 213.122 63.0836C212.394 63.7422 211.917 64.6609 211.692 65.8396V74.5756H207.584V59.4176H211.068L211.406 61.0036ZM245.317 73.9256C245.317 75.1389 245.109 76.2222 244.693 77.1756C244.294 78.1462 243.731 78.9696 243.003 79.6456C242.275 80.3389 241.408 80.8762 240.403 81.2576C239.398 81.6389 238.297 81.8382 237.101 81.8556C235.992 81.8902 234.926 81.7862 233.903 81.5436C232.898 81.3009 231.996 80.9282 231.199 80.4256C230.402 79.9229 229.743 79.2729 229.223 78.4756C228.703 77.6956 228.391 76.7596 228.287 75.6676H232.447C232.516 76.6556 232.915 77.4096 233.643 77.9296C234.388 78.4496 235.342 78.7096 236.503 78.7096C237.179 78.7096 237.803 78.6142 238.375 78.4236C238.947 78.2329 239.441 77.9382 239.857 77.5396C240.29 77.1409 240.62 76.6382 240.845 76.0316C241.088 75.4422 241.209 74.7316 241.209 73.8996V72.0796C240.568 72.9289 239.736 73.5529 238.713 73.9516C237.69 74.3676 236.581 74.5756 235.385 74.5756C234.328 74.5756 233.322 74.3849 232.369 74.0036C231.433 73.6222 230.601 73.0849 229.873 72.3916C229.162 71.6982 228.599 70.8749 228.183 69.9216C227.767 68.9682 227.559 67.9196 227.559 66.7756C227.559 65.5969 227.776 64.5222 228.209 63.5516C228.642 62.5809 229.223 61.7576 229.951 61.0816C230.679 60.3882 231.511 59.8509 232.447 59.4696C233.383 59.0882 234.354 58.8976 235.359 58.8976C236.607 58.8976 237.742 59.1056 238.765 59.5216C239.788 59.9376 240.62 60.5269 241.261 61.2896L241.729 59.4176H245.317V73.9256ZM236.191 71.4036C236.815 71.4036 237.404 71.2909 237.959 71.0656C238.514 70.8402 238.99 70.5282 239.389 70.1296C239.805 69.7136 240.126 69.2196 240.351 68.6476C240.594 68.0756 240.715 67.4516 240.715 66.7756C240.715 66.0649 240.594 65.4236 240.351 64.8516C240.126 64.2796 239.805 63.7942 239.389 63.3956C238.99 62.9796 238.514 62.6589 237.959 62.4336C237.404 62.2082 236.815 62.0956 236.191 62.0956C235.567 62.0956 234.978 62.2082 234.423 62.4336C233.868 62.6589 233.383 62.9796 232.967 63.3956C232.568 63.7942 232.248 64.2796 232.005 64.8516C231.78 65.4236 231.667 66.0649 231.667 66.7756C231.667 67.4516 231.78 68.0756 232.005 68.6476C232.248 69.2196 232.568 69.7136 232.967 70.1296C233.383 70.5282 233.868 70.8402 234.423 71.0656C234.978 71.2909 235.567 71.4036 236.191 71.4036Z" fill="white"/>
<path d="M73.899 134.466H63.499V116.516C63.499 115.349 63.199 114.382 62.599 113.616C62.0324 112.849 61.199 112.466 60.099 112.466C59.5657 112.466 59.099 112.599 58.699 112.866C58.299 113.099 57.9657 113.416 57.699 113.816C57.4324 114.182 57.199 114.616 56.999 115.116C56.8324 115.582 56.7157 116.049 56.649 116.516V134.466H46.249V104.816H55.149L55.949 106.916C56.949 105.816 58.099 105.032 59.399 104.566C60.699 104.099 61.9824 103.849 63.249 103.816C64.749 103.782 66.199 104.116 67.599 104.816C69.0324 105.516 70.2657 106.532 71.299 107.866C72.5324 106.332 73.9657 105.266 75.599 104.666C77.2657 104.066 78.8824 103.782 80.449 103.816C81.8157 103.849 83.1324 104.166 84.399 104.766C85.699 105.332 86.849 106.166 87.849 107.266C88.849 108.332 89.649 109.632 90.249 111.166C90.849 112.699 91.149 114.416 91.149 116.316V134.466H80.749V116.516C80.749 115.349 80.449 114.382 79.849 113.616C79.2824 112.849 78.449 112.466 77.349 112.466C76.3157 112.466 75.5157 112.799 74.949 113.466C74.4157 114.132 74.0657 114.982 73.899 116.016V134.466ZM132.803 133.316C132.803 135.549 132.42 137.582 131.653 139.416C130.887 141.249 129.82 142.816 128.453 144.116C127.12 145.416 125.52 146.432 123.653 147.166C121.787 147.932 119.753 148.366 117.553 148.466C115.62 148.532 113.703 148.349 111.803 147.916C109.903 147.516 108.187 146.816 106.653 145.816C105.12 144.816 103.837 143.516 102.803 141.916C101.803 140.316 101.22 138.366 101.053 136.066H111.453C111.587 137.332 112.137 138.282 113.103 138.916C114.07 139.582 115.153 139.916 116.353 139.916C117.187 139.916 117.97 139.782 118.703 139.516C119.437 139.249 120.07 138.849 120.603 138.316C121.17 137.816 121.603 137.199 121.903 136.466C122.237 135.732 122.403 134.882 122.403 133.916V131.566C121.37 132.499 120.153 133.216 118.753 133.716C117.387 134.216 116.003 134.466 114.603 134.466C112.603 134.466 110.753 134.166 109.053 133.566C107.353 132.999 105.87 132.182 104.603 131.116C103.37 130.049 102.403 128.782 101.703 127.316C101.003 125.849 100.653 124.232 100.653 122.466V104.816H111.053V119.266C111.053 120.499 111.203 121.549 111.503 122.416C111.803 123.249 112.203 123.932 112.703 124.466C113.203 124.966 113.77 125.332 114.403 125.566C115.07 125.766 115.737 125.866 116.403 125.866C117.903 125.866 119.187 125.416 120.253 124.516C121.353 123.582 122.07 122.366 122.403 120.866V104.816H132.803V133.316ZM163.863 114.066C163.23 113.666 162.53 113.316 161.763 113.016C161.03 112.682 160.28 112.399 159.513 112.166C158.78 111.932 158.047 111.749 157.313 111.616C156.613 111.482 155.997 111.416 155.463 111.416C153.13 111.416 151.963 111.999 151.963 113.166C151.963 113.732 152.23 114.166 152.763 114.466C153.297 114.766 153.997 115.032 154.863 115.266C156.597 115.732 158.263 116.232 159.863 116.766C161.497 117.299 162.93 117.966 164.163 118.766C165.43 119.532 166.43 120.482 167.163 121.616C167.897 122.716 168.263 124.082 168.263 125.716C168.263 127.482 167.897 129.016 167.163 130.316C166.463 131.616 165.497 132.682 164.263 133.516C163.063 134.349 161.63 134.966 159.963 135.366C158.33 135.766 156.597 135.966 154.763 135.966C152.263 135.966 149.813 135.599 147.413 134.866C145.047 134.166 142.763 133.066 140.563 131.566L144.213 124.416C144.813 124.882 145.513 125.332 146.313 125.766C147.113 126.166 147.947 126.516 148.813 126.816C149.68 127.116 150.563 127.366 151.463 127.566C152.363 127.732 153.213 127.816 154.013 127.816C155.413 127.849 156.397 127.732 156.963 127.466C157.563 127.166 157.863 126.666 157.863 125.966C157.863 125.266 157.463 124.732 156.663 124.366C155.863 123.999 154.913 123.666 153.813 123.366C151.947 122.866 150.263 122.349 148.763 121.816C147.263 121.249 145.98 120.566 144.913 119.766C143.88 118.966 143.063 118.016 142.463 116.916C141.897 115.816 141.597 114.466 141.563 112.866C141.53 111.166 141.88 109.716 142.613 108.516C143.38 107.316 144.38 106.332 145.613 105.566C146.847 104.799 148.23 104.232 149.763 103.866C151.33 103.499 152.913 103.316 154.513 103.316C157.147 103.316 159.513 103.716 161.613 104.516C163.713 105.316 165.58 106.216 167.213 107.216L163.863 114.066ZM184.892 125.016C186.392 126.916 188.575 127.866 191.442 127.866C193.442 127.866 195.158 127.566 196.592 126.966C198.025 126.332 199.375 125.332 200.642 123.966L207.392 128.966C205.492 131.166 203.308 132.882 200.842 134.116C198.408 135.349 195.542 135.966 192.242 135.966C189.542 135.966 187.075 135.582 184.842 134.816C182.608 134.082 180.675 133.016 179.042 131.616C177.408 130.216 176.142 128.516 175.242 126.516C174.342 124.482 173.892 122.199 173.892 119.666C173.892 117.199 174.342 114.966 175.242 112.966C176.175 110.932 177.442 109.216 179.042 107.816C180.642 106.382 182.508 105.282 184.642 104.516C186.775 103.716 189.058 103.316 191.492 103.316C193.992 103.316 196.292 103.699 198.392 104.466C200.492 105.199 202.292 106.266 203.792 107.666C205.292 109.066 206.458 110.782 207.292 112.816C208.158 114.849 208.592 117.149 208.592 119.716L184.892 125.016ZM191.842 111.316C189.575 111.316 187.708 111.866 186.242 112.966C184.775 114.066 183.842 115.599 183.442 117.566L198.042 114.316C197.375 113.449 196.525 112.732 195.492 112.166C194.458 111.599 193.242 111.316 191.842 111.316ZM226.415 94.6156V134.466H216.015V94.6156H226.415ZM249.197 134.466H238.797V114.416H233.397V105.816H238.797V103.466C238.797 102.132 239.031 100.916 239.497 99.8156C239.997 98.7156 240.664 97.7822 241.497 97.0156C242.364 96.2489 243.347 95.6656 244.447 95.2656C245.547 94.8322 246.731 94.6156 247.997 94.6156H256.497V103.216H251.847C251.014 103.216 250.364 103.466 249.897 103.966C249.431 104.432 249.197 105.049 249.197 105.816H255.997V114.416H249.197V134.466Z" fill="white"/>
<line x1="35.6221" y1="87.7156" x2="264.622" y2="87.7156" stroke="white" stroke-width="2"/>
</svg>
