<svg width="322" height="174" viewBox="0 0 322 174" fill="none" xmlns="http://www.w3.org/2000/svg">
<ellipse cx="160.845" cy="87.4155" rx="160.5" ry="86.5" fill="#FB4229"/>
<path d="M298.845 87.4155C298.845 105.728 283.853 122.716 258.673 135.216C233.587 147.67 198.824 155.416 160.345 155.416C121.866 155.416 87.1043 147.67 62.0175 135.216C36.8379 122.716 21.8455 105.728 21.8455 87.4155C21.8455 69.1035 36.8379 52.115 62.0175 39.6152C87.1043 27.1614 121.866 19.4155 160.345 19.4155C198.824 19.4155 233.587 27.1614 258.673 39.6152C283.853 52.115 298.845 69.1035 298.845 87.4155Z" stroke="white" stroke-width="3"/>
<path d="M125.708 67.3955C125.708 65.5555 126.038 63.8655 126.698 62.3255C127.378 60.7855 128.298 59.4655 129.458 58.3655C130.638 57.2455 132.028 56.3755 133.628 55.7555C135.228 55.1355 136.948 54.8255 138.788 54.8255C141.268 54.8255 143.408 55.3355 145.208 56.3555C147.008 57.3555 148.628 58.8455 150.068 60.8255L145.958 64.2755C145.218 62.9555 144.278 61.9055 143.138 61.1255C142.018 60.3455 140.618 59.9555 138.938 59.9555C137.898 59.9555 136.948 60.1455 136.088 60.5255C135.228 60.9055 134.488 61.4355 133.868 62.1155C133.268 62.7755 132.798 63.5655 132.458 64.4855C132.118 65.3855 131.948 66.3555 131.948 67.3955C131.948 68.4355 132.108 69.4055 132.428 70.3055C132.768 71.2055 133.248 71.9955 133.868 72.6755C134.488 73.3355 135.228 73.8555 136.088 74.2355C136.968 74.6155 137.938 74.8055 138.998 74.8055C139.858 74.8055 140.628 74.7055 141.308 74.5055C142.008 74.3055 142.638 74.0155 143.198 73.6355C143.778 73.2555 144.298 72.7955 144.758 72.2555C145.238 71.7155 145.678 71.1055 146.078 70.4255L150.098 73.9955C148.738 75.8955 147.148 77.3655 145.328 78.4055C143.528 79.4455 141.348 79.9655 138.788 79.9655C136.948 79.9655 135.228 79.6555 133.628 79.0355C132.028 78.4155 130.638 77.5455 129.458 76.4255C128.298 75.3255 127.378 74.0055 126.698 72.4655C126.038 70.9255 125.708 69.2355 125.708 67.3955ZM154.71 71.5655C155.77 72.4655 157.01 73.1955 158.43 73.7555C159.85 74.3155 161.31 74.5855 162.81 74.5655C163.81 74.5455 164.54 74.3955 165 74.1155C165.46 73.8355 165.69 73.4155 165.69 72.8555C165.69 72.1955 165.42 71.6655 164.88 71.2655C164.36 70.8655 163.48 70.4955 162.24 70.1555C161.18 69.8555 160.09 69.5355 158.97 69.1955C157.85 68.8355 156.83 68.3655 155.91 67.7855C154.99 67.2055 154.23 66.4655 153.63 65.5655C153.05 64.6655 152.76 63.5055 152.76 62.0855C152.76 60.8255 153 59.7455 153.48 58.8455C153.98 57.9255 154.65 57.1755 155.49 56.5955C156.35 55.9955 157.34 55.5555 158.46 55.2755C159.6 54.9955 160.8 54.8555 162.06 54.8555C162.94 54.8555 163.77 54.9155 164.55 55.0355C165.35 55.1555 166.13 55.3455 166.89 55.6055C167.67 55.8455 168.43 56.1555 169.17 56.5355C169.93 56.9155 170.71 57.3755 171.51 57.9155L169.05 62.7155C168.09 61.9755 167.03 61.3955 165.87 60.9755C164.71 60.5555 163.49 60.3255 162.21 60.2855C161.79 60.2655 161.39 60.2855 161.01 60.3455C160.65 60.3855 160.33 60.4755 160.05 60.6155C159.77 60.7355 159.54 60.8955 159.36 61.0955C159.2 61.2955 159.12 61.5455 159.12 61.8455C159.12 62.1455 159.16 62.4155 159.24 62.6555C159.34 62.8755 159.52 63.0855 159.78 63.2855C160.04 63.4855 160.41 63.6855 160.89 63.8855C161.39 64.0855 162.05 64.2955 162.87 64.5155C164.15 64.8755 165.35 65.2555 166.47 65.6555C167.61 66.0355 168.6 66.5255 169.44 67.1255C170.28 67.7055 170.94 68.4355 171.42 69.3155C171.9 70.1955 172.14 71.3055 172.14 72.6455C172.14 73.8855 171.9 74.9655 171.42 75.8855C170.94 76.8055 170.27 77.5655 169.41 78.1655C168.55 78.7655 167.53 79.2155 166.35 79.5155C165.17 79.8155 163.88 79.9655 162.48 79.9655C160.48 79.9655 158.61 79.6655 156.87 79.0655C155.15 78.4655 153.55 77.6355 152.07 76.5755L154.71 71.5655ZM177.562 71.5655C178.622 72.4655 179.862 73.1955 181.282 73.7555C182.702 74.3155 184.162 74.5855 185.662 74.5655C186.662 74.5455 187.392 74.3955 187.852 74.1155C188.312 73.8355 188.542 73.4155 188.542 72.8555C188.542 72.1955 188.272 71.6655 187.732 71.2655C187.212 70.8655 186.332 70.4955 185.092 70.1555C184.032 69.8555 182.942 69.5355 181.822 69.1955C180.702 68.8355 179.682 68.3655 178.762 67.7855C177.842 67.2055 177.082 66.4655 176.482 65.5655C175.902 64.6655 175.612 63.5055 175.612 62.0855C175.612 60.8255 175.852 59.7455 176.332 58.8455C176.832 57.9255 177.502 57.1755 178.342 56.5955C179.202 55.9955 180.192 55.5555 181.312 55.2755C182.452 54.9955 183.652 54.8555 184.912 54.8555C185.792 54.8555 186.622 54.9155 187.402 55.0355C188.202 55.1555 188.982 55.3455 189.742 55.6055C190.522 55.8455 191.282 56.1555 192.022 56.5355C192.782 56.9155 193.562 57.3755 194.362 57.9155L191.902 62.7155C190.942 61.9755 189.882 61.3955 188.722 60.9755C187.562 60.5555 186.342 60.3255 185.062 60.2855C184.642 60.2655 184.242 60.2855 183.862 60.3455C183.502 60.3855 183.182 60.4755 182.902 60.6155C182.622 60.7355 182.392 60.8955 182.212 61.0955C182.052 61.2955 181.972 61.5455 181.972 61.8455C181.972 62.1455 182.012 62.4155 182.092 62.6555C182.192 62.8755 182.372 63.0855 182.632 63.2855C182.892 63.4855 183.262 63.6855 183.742 63.8855C184.242 64.0855 184.902 64.2955 185.722 64.5155C187.002 64.8755 188.202 65.2555 189.322 65.6555C190.462 66.0355 191.452 66.5255 192.292 67.1255C193.132 67.7055 193.792 68.4355 194.272 69.3155C194.752 70.1955 194.992 71.3055 194.992 72.6455C194.992 73.8855 194.752 74.9655 194.272 75.8855C193.792 76.8055 193.122 77.5655 192.262 78.1655C191.402 78.7655 190.382 79.2155 189.202 79.5155C188.022 79.8155 186.732 79.9655 185.332 79.9655C183.332 79.9655 181.462 79.6655 179.722 79.0655C178.002 78.4655 176.402 77.6355 174.922 76.5755L177.562 71.5655ZM87.3078 115.366L80.0478 105.226V115.366H73.8078V91.4555H80.0478V100.456L87.3078 91.4555H94.1778L84.9378 102.916L94.1778 115.366H87.3078ZM100.755 109.696C101.655 110.836 102.965 111.406 104.685 111.406C105.885 111.406 106.915 111.226 107.775 110.866C108.635 110.486 109.445 109.886 110.205 109.066L114.255 112.066C113.115 113.386 111.805 114.416 110.325 115.156C108.865 115.896 107.145 116.266 105.165 116.266C103.545 116.266 102.065 116.036 100.725 115.576C99.385 115.136 98.225 114.496 97.245 113.656C96.265 112.816 95.505 111.796 94.965 110.596C94.425 109.376 94.155 108.006 94.155 106.486C94.155 105.006 94.425 103.666 94.965 102.466C95.525 101.246 96.285 100.216 97.245 99.3755C98.205 98.5155 99.325 97.8555 100.605 97.3955C101.885 96.9155 103.255 96.6755 104.715 96.6755C106.215 96.6755 107.595 96.9055 108.855 97.3655C110.115 97.8055 111.195 98.4455 112.095 99.2855C112.995 100.126 113.695 101.156 114.195 102.376C114.715 103.596 114.975 104.976 114.975 106.516L100.755 109.696ZM104.925 101.476C103.565 101.476 102.445 101.806 101.565 102.466C100.685 103.126 100.125 104.046 99.885 105.226L108.645 103.276C108.245 102.756 107.735 102.326 107.115 101.986C106.495 101.646 105.765 101.476 104.925 101.476ZM137.219 114.676C137.219 116.016 136.989 117.236 136.529 118.336C136.069 119.436 135.429 120.376 134.609 121.156C133.809 121.936 132.849 122.546 131.729 122.986C130.609 123.446 129.389 123.706 128.069 123.766C126.909 123.806 125.759 123.696 124.619 123.436C123.479 123.196 122.449 122.776 121.529 122.176C120.609 121.576 119.839 120.796 119.219 119.836C118.619 118.876 118.269 117.706 118.169 116.326H124.409C124.489 117.086 124.819 117.656 125.399 118.036C125.979 118.436 126.629 118.636 127.349 118.636C127.849 118.636 128.319 118.556 128.759 118.396C129.199 118.236 129.579 117.996 129.899 117.676C130.239 117.376 130.499 117.006 130.679 116.566C130.879 116.126 130.979 115.616 130.979 115.036V113.626C130.359 114.186 129.629 114.616 128.789 114.916C127.969 115.216 127.139 115.366 126.299 115.366C125.099 115.366 123.989 115.186 122.969 114.826C121.949 114.486 121.059 113.996 120.299 113.356C119.559 112.716 118.979 111.956 118.559 111.076C118.139 110.196 117.929 109.226 117.929 108.166V97.5755H124.169V106.246C124.169 106.986 124.259 107.616 124.439 108.136C124.619 108.636 124.859 109.046 125.159 109.366C125.459 109.666 125.799 109.886 126.179 110.026C126.579 110.146 126.979 110.206 127.379 110.206C128.279 110.206 129.049 109.936 129.689 109.396C130.349 108.836 130.779 108.106 130.979 107.206V97.5755H137.219V114.676ZM149.405 115.366H143.165V103.336H139.925V98.1755H143.165V96.7655C143.165 95.9655 143.305 95.2355 143.585 94.5755C143.885 93.9155 144.285 93.3555 144.785 92.8955C145.305 92.4355 145.895 92.0855 146.555 91.8455C147.215 91.5855 147.925 91.4555 148.685 91.4555H153.785V96.6155H150.995C150.495 96.6155 150.105 96.7655 149.825 97.0655C149.545 97.3455 149.405 97.7155 149.405 98.1755H153.485V103.336H149.405V115.366ZM162.214 99.1355C162.674 98.6155 163.254 98.2255 163.954 97.9655C164.654 97.7055 165.384 97.5755 166.144 97.5755H170.044L168.964 102.736H165.364C165.004 102.736 164.664 102.816 164.344 102.976C164.024 103.136 163.744 103.356 163.504 103.636C163.264 103.916 163.074 104.246 162.934 104.626C162.794 105.006 162.724 105.416 162.724 105.856V115.366H156.484V97.5755H161.824L162.214 99.1355ZM187.257 97.5755H192.567V115.366H187.227L186.747 113.926C185.907 114.626 184.957 115.146 183.897 115.486C182.857 115.826 181.777 115.986 180.657 115.966C179.257 115.946 177.977 115.696 176.817 115.216C175.657 114.736 174.657 114.076 173.817 113.236C172.977 112.396 172.327 111.406 171.867 110.266C171.407 109.126 171.177 107.876 171.177 106.516C171.177 105.116 171.417 103.836 171.897 102.676C172.397 101.496 173.067 100.486 173.907 99.6455C174.767 98.8055 175.767 98.1555 176.907 97.6955C178.067 97.2155 179.307 96.9755 180.627 96.9755C181.787 96.9755 182.877 97.1255 183.897 97.4255C184.917 97.7255 185.857 98.1955 186.717 98.8355L187.257 97.5755ZM181.587 110.806C182.847 110.806 183.857 110.406 184.617 109.606C185.377 108.806 185.757 107.776 185.757 106.516C185.757 105.196 185.377 104.146 184.617 103.366C183.857 102.566 182.847 102.166 181.587 102.166C180.327 102.166 179.317 102.566 178.557 103.366C177.797 104.146 177.417 105.196 177.417 106.516C177.417 107.776 177.797 108.806 178.557 109.606C179.317 110.406 180.327 110.806 181.587 110.806ZM213.357 115.366H207.117V104.596C207.117 103.896 206.937 103.316 206.577 102.856C206.237 102.396 205.737 102.166 205.077 102.166C204.757 102.166 204.477 102.246 204.237 102.406C203.997 102.546 203.797 102.736 203.637 102.976C203.477 103.196 203.337 103.456 203.217 103.756C203.117 104.036 203.047 104.316 203.007 104.596V115.366H196.767V97.5755H202.107L202.587 98.8355C203.187 98.1755 203.877 97.7055 204.657 97.4255C205.437 97.1455 206.207 96.9955 206.967 96.9755C207.867 96.9555 208.737 97.1555 209.577 97.5755C210.437 97.9955 211.177 98.6055 211.797 99.4055C212.537 98.4855 213.397 97.8455 214.377 97.4855C215.377 97.1255 216.347 96.9555 217.287 96.9755C218.107 96.9955 218.897 97.1855 219.657 97.5455C220.437 97.8855 221.127 98.3855 221.727 99.0455C222.327 99.6855 222.807 100.466 223.167 101.386C223.527 102.306 223.707 103.336 223.707 104.476V115.366H217.467V104.596C217.467 103.896 217.287 103.316 216.927 102.856C216.587 102.396 216.087 102.166 215.427 102.166C214.807 102.166 214.327 102.366 213.987 102.766C213.667 103.166 213.457 103.676 213.357 104.296V115.366ZM233.323 109.696C234.223 110.836 235.533 111.406 237.253 111.406C238.453 111.406 239.483 111.226 240.343 110.866C241.203 110.486 242.013 109.886 242.773 109.066L246.823 112.066C245.683 113.386 244.373 114.416 242.893 115.156C241.433 115.896 239.713 116.266 237.733 116.266C236.113 116.266 234.633 116.036 233.293 115.576C231.953 115.136 230.793 114.496 229.813 113.656C228.833 112.816 228.073 111.796 227.533 110.596C226.993 109.376 226.723 108.006 226.723 106.486C226.723 105.006 226.993 103.666 227.533 102.466C228.093 101.246 228.853 100.216 229.813 99.3755C230.773 98.5155 231.893 97.8555 233.173 97.3955C234.453 96.9155 235.823 96.6755 237.283 96.6755C238.783 96.6755 240.163 96.9055 241.423 97.3655C242.683 97.8055 243.763 98.4455 244.663 99.2855C245.563 100.126 246.263 101.156 246.763 102.376C247.283 103.596 247.543 104.976 247.543 106.516L233.323 109.696ZM237.493 101.476C236.133 101.476 235.013 101.806 234.133 102.466C233.253 103.126 232.693 104.046 232.453 105.226L241.213 103.276C240.813 102.756 240.303 102.326 239.683 101.986C239.063 101.646 238.333 101.476 237.493 101.476Z" fill="white"/>
</svg>
