<svg width="221" height="207" viewBox="0 0 221 207" fill="none" xmlns="http://www.w3.org/2000/svg">
<path d="M17.9179 109.31C-5.68639 84.4267 -5.68643 44.0826 17.9178 19.1992C41.5221 -5.68418 79.792 -5.68413 103.396 19.1993L152.884 71.3689C176.488 96.2523 176.488 136.596 152.884 161.48L110.145 206.535L17.9179 109.31Z" fill="#FE98A6"/>
<path d="M117.032 19.1994C140.636 -5.68406 178.906 -5.68401 202.511 19.1995C226.115 44.0829 226.115 84.427 202.511 109.311L110.284 206.535L67.5445 161.48C43.9402 136.596 43.9401 96.2522 67.5444 71.3688L117.032 19.1994Z" fill="#FE98A6"/>
<path d="M68.9009 57.0756H75.2909L75.2909 80.9856H69.0509L69.0509 69.0456L64.1609 80.9856H59.6909L54.8009 69.0456L54.8009 80.9856H48.5609L48.5609 57.0756H54.9509L61.9109 74.0856L68.9009 57.0756ZM77.9316 72.1356C77.9316 70.6156 78.2116 69.2456 78.7716 68.0256C79.3516 66.8056 80.1216 65.7756 81.0816 64.9356C82.0616 64.0756 83.1916 63.4256 84.4716 62.9856C85.7716 62.5256 87.1516 62.2956 88.6116 62.2956C90.0916 62.2956 91.4816 62.5256 92.7816 62.9856C94.0816 63.4256 95.2116 64.0656 96.1716 64.9056C97.1316 65.7456 97.8916 66.7756 98.4516 67.9956C99.0116 69.2156 99.2916 70.5856 99.2916 72.1056C99.2916 73.6056 99.0117 74.9656 98.4517 76.1856C97.8917 77.3856 97.1317 78.4056 96.1717 79.2456C95.2117 80.1056 94.0817 80.7556 92.7817 81.1956C91.4817 81.6556 90.0917 81.8856 88.6117 81.8856C87.1517 81.8856 85.7717 81.6556 84.4717 81.1956C83.1917 80.7556 82.0617 80.1156 81.0817 79.2756C80.1217 78.4356 79.3517 77.4156 78.7716 76.2156C78.2116 74.9956 77.9316 73.6356 77.9316 72.1356ZM88.6117 76.7556C89.2917 76.7556 89.9117 76.6356 90.4717 76.3956C91.0317 76.1556 91.5017 75.8356 91.8817 75.4356C92.2617 75.0156 92.5517 74.5256 92.7516 73.9656C92.9716 73.4056 93.0816 72.7956 93.0816 72.1356C93.0816 71.4556 92.9716 70.8356 92.7516 70.2756C92.5516 69.6956 92.2616 69.1956 91.8816 68.7756C91.5016 68.3556 91.0316 68.0356 90.4716 67.8156C89.9116 67.5756 89.2916 67.4556 88.6116 67.4556C87.9116 67.4556 87.2816 67.5756 86.7216 67.8156C86.1816 68.0556 85.7116 68.3856 85.3116 68.8056C84.9316 69.2256 84.6416 69.7256 84.4416 70.3056C84.2416 70.8656 84.1416 71.4756 84.1416 72.1356C84.1416 72.7956 84.2416 73.4056 84.4416 73.9656C84.6416 74.5256 84.9316 75.0156 85.3116 75.4356C85.7116 75.8356 86.1817 76.1556 86.7217 76.3956C87.2817 76.6356 87.9117 76.7556 88.6117 76.7556ZM109.92 63.1956H114L114 68.3556H109.92L109.92 74.2356C109.92 74.7156 110.06 75.1056 110.34 75.4056C110.62 75.6856 111.01 75.8256 111.51 75.8256H114.3L114.3 80.9856H109.2C108.44 80.9856 107.73 80.8556 107.07 80.5956C106.41 80.3556 105.82 80.0056 105.3 79.5456C104.8 79.0856 104.4 78.5256 104.1 77.8656C103.82 77.2256 103.68 76.4956 103.68 75.6756L103.68 68.3556H100.44L100.44 63.1956H103.68L103.68 57.0756H109.92L109.92 63.1956ZM123.238 63.1956L123.238 80.9856H116.998L116.998 63.1956H123.238ZM123.238 56.2356L123.238 61.3956H116.998L116.998 56.2356H123.238ZM126.242 72.1356C126.242 70.6156 126.522 69.2456 127.082 68.0256C127.662 66.8056 128.432 65.7756 129.392 64.9356C130.372 64.0756 131.502 63.4256 132.782 62.9856C134.082 62.5256 135.462 62.2956 136.922 62.2956C138.402 62.2956 139.792 62.5256 141.092 62.9856C142.392 63.4256 143.522 64.0656 144.482 64.9056C145.442 65.7456 146.202 66.7756 146.762 67.9956C147.322 69.2156 147.602 70.5856 147.602 72.1056C147.602 73.6056 147.322 74.9656 146.762 76.1856C146.202 77.3856 145.442 78.4056 144.482 79.2456C143.522 80.1056 142.392 80.7556 141.092 81.1956C139.792 81.6556 138.402 81.8856 136.922 81.8856C135.462 81.8856 134.082 81.6556 132.782 81.1956C131.502 80.7556 130.372 80.1156 129.392 79.2756C128.432 78.4356 127.662 77.4156 127.082 76.2156C126.522 74.9956 126.242 73.6356 126.242 72.1356ZM136.922 76.7556C137.602 76.7556 138.222 76.6356 138.782 76.3956C139.342 76.1556 139.812 75.8356 140.192 75.4356C140.572 75.0156 140.862 74.5256 141.062 73.9656C141.282 73.4056 141.392 72.7956 141.392 72.1356C141.392 71.4556 141.282 70.8356 141.062 70.2756C140.862 69.6956 140.572 69.1956 140.192 68.7756C139.812 68.3556 139.342 68.0356 138.782 67.8156C138.222 67.5756 137.602 67.4556 136.922 67.4556C136.222 67.4556 135.592 67.5756 135.032 67.8156C134.492 68.0556 134.022 68.3856 133.622 68.8056C133.242 69.2256 132.952 69.7256 132.752 70.3056C132.552 70.8656 132.452 71.4756 132.452 72.1356C132.452 72.7956 132.552 73.4056 132.752 73.9656C132.952 74.5256 133.242 75.0156 133.622 75.4356C134.022 75.8356 134.492 76.1556 135.032 76.3956C135.592 76.6356 136.222 76.7556 136.922 76.7556ZM156.393 64.4556C156.753 64.1756 157.143 63.9256 157.563 63.7056C157.983 63.4656 158.413 63.2656 158.853 63.1056C159.313 62.9456 159.763 62.8256 160.203 62.7456C160.663 62.6456 161.093 62.5956 161.493 62.5956C162.693 62.5956 163.803 62.7756 164.823 63.1356C165.843 63.4756 166.723 63.9656 167.463 64.6056C168.223 65.2456 168.813 66.0056 169.233 66.8856C169.653 67.7656 169.863 68.7356 169.863 69.7956L169.863 80.9856H163.623L163.623 71.7156C163.623 70.9756 163.533 70.3556 163.353 69.8556C163.173 69.3356 162.933 68.9256 162.633 68.6256C162.333 68.3056 161.983 68.0856 161.583 67.9656C161.203 67.8256 160.813 67.7556 160.413 67.7556C159.513 67.7556 158.733 68.0356 158.073 68.5956C157.433 69.1356 157.013 69.8556 156.813 70.7556L156.813 80.9856H150.573L150.573 63.1956H155.913L156.393 64.4556Z" fill="white"/>
<path d="M100.538 135.336L85.4175 135.336L78.2175 121.416L78.2175 107.656L85.4175 93.7356L100.538 93.7356L107.738 107.656L107.738 121.416L100.538 135.336ZM135.018 135.336L119.898 135.336L112.698 121.416L112.698 107.656L119.898 93.7356L135.018 93.7357L142.218 107.656L142.218 121.416L135.018 135.336ZM127.658 121.576L120.458 121.576L123.978 128.376L130.938 128.376L135.258 120.056L135.258 109.016L130.938 100.696L123.978 100.696L120.378 107.576L127.658 107.576L127.658 121.576ZM93.1775 121.576L85.9775 121.576L89.4975 128.376L96.4575 128.376L100.778 120.056L100.778 109.016L96.4575 100.696L89.4975 100.696L85.8975 107.576L93.1775 107.576L93.1775 121.576Z" fill="white"/>
</svg>
