<svg width="348" height="349" viewBox="0 0 348 349" fill="none" xmlns="http://www.w3.org/2000/svg">
<rect x="173.854" y="27.416" width="207.831" height="207.831" rx="60" transform="rotate(45 173.854 27.416)" fill="#3A88C8"/>
<path fill-rule="evenodd" clip-rule="evenodd" d="M173.509 67.1553C173.509 77.0305 171.231 84.3455 167.506 89.1951C163.78 94.0448 158.162 97.011 150.576 97.011C158.162 97.011 163.78 99.9771 167.506 104.827C171.231 109.677 173.509 116.992 173.509 126.867C173.509 116.992 175.787 109.677 179.513 104.827C183.238 99.9771 188.856 97.011 196.442 97.011C188.856 97.011 183.238 94.0448 179.513 89.1951C175.787 84.3455 173.509 77.0305 173.509 67.1553Z" fill="white"/>
<path fill-rule="evenodd" clip-rule="evenodd" d="M173.509 220.328C173.509 230.203 171.231 237.518 167.506 242.368C163.781 247.217 158.162 250.183 150.577 250.183C158.162 250.183 163.781 253.149 167.506 257.999C171.231 262.849 173.509 270.164 173.509 280.039C173.509 270.164 175.788 262.849 179.513 257.999C183.238 253.149 188.857 250.183 196.442 250.183C188.857 250.183 183.238 247.217 179.513 242.368C175.788 237.518 173.509 230.203 173.509 220.328Z" fill="white"/>
<path d="M108.855 151.344C108.855 149.259 109.229 147.343 109.977 145.598C110.748 143.853 111.791 142.357 113.105 141.11C114.443 139.841 116.018 138.855 117.831 138.152C119.645 137.449 121.594 137.098 123.679 137.098C126.49 137.098 128.915 137.676 130.955 138.832C132.995 139.965 134.831 141.654 136.463 143.898L131.805 147.808C130.967 146.312 129.901 145.122 128.609 144.238C127.34 143.354 125.753 142.912 123.849 142.912C122.671 142.912 121.594 143.127 120.619 143.558C119.645 143.989 118.806 144.589 118.103 145.36C117.423 146.108 116.891 147.003 116.505 148.046C116.12 149.066 115.927 150.165 115.927 151.344C115.927 152.523 116.109 153.622 116.471 154.642C116.857 155.662 117.401 156.557 118.103 157.328C118.806 158.076 119.645 158.665 120.619 159.096C121.617 159.527 122.716 159.742 123.917 159.742C124.892 159.742 125.765 159.629 126.535 159.402C127.329 159.175 128.043 158.847 128.677 158.416C129.335 157.985 129.924 157.464 130.445 156.852C130.989 156.24 131.488 155.549 131.941 154.778L136.497 158.824C134.956 160.977 133.154 162.643 131.091 163.822C129.051 165.001 126.581 165.59 123.679 165.59C121.594 165.59 119.645 165.239 117.831 164.536C116.018 163.833 114.443 162.847 113.105 161.578C111.791 160.331 110.748 158.835 109.977 157.09C109.229 155.345 108.855 153.429 108.855 151.344ZM163.689 164.91V152.228L153.523 155.016V164.91H146.451V137.812H153.523V149.202L163.689 146.38V137.812H170.761V164.91H163.689ZM180.637 164.91L189.817 137.812H198.725L207.905 164.91H200.833L198.249 157.328L189.477 159.742L187.709 164.91H180.637ZM191.653 153.316L196.413 151.99L194.271 145.632L191.653 153.316ZM238.192 148.148V153.996H224.83V159.096H239.178V164.91H217.758V137.812H238.838V143.66H224.83V148.148H238.192ZM114.675 178.812L119.979 187.754L125.283 178.812H133.069L123.481 194.588V205.91H116.409V194.486L106.889 178.812H114.675ZM163.315 189.148V194.996H149.953V200.096H164.301V205.91H142.881V178.812H163.961V184.66H149.953V189.148H163.315ZM174.468 192.31C174.468 190.247 174.842 188.343 175.59 186.598C176.361 184.853 177.403 183.357 178.718 182.11C180.055 180.841 181.631 179.855 183.444 179.152C185.257 178.449 187.229 178.098 189.36 178.098C191.513 178.098 193.497 178.449 195.31 179.152C197.124 179.855 198.688 180.841 200.002 182.11C201.339 183.357 202.371 184.853 203.096 186.598C203.844 188.343 204.218 190.247 204.218 192.31C204.218 194.395 203.844 196.311 203.096 198.056C202.371 199.801 201.339 201.309 200.002 202.578C198.688 203.847 197.124 204.833 195.31 205.536C193.497 206.239 191.513 206.59 189.36 206.59C187.229 206.59 185.257 206.239 183.444 205.536C181.631 204.833 180.055 203.847 178.718 202.578C177.403 201.309 176.361 199.801 175.59 198.056C174.842 196.311 174.468 194.395 174.468 192.31ZM181.54 192.31C181.54 193.557 181.721 194.701 182.084 195.744C182.469 196.764 183.002 197.648 183.682 198.396C184.362 199.144 185.178 199.733 186.13 200.164C187.105 200.572 188.181 200.776 189.36 200.776C190.539 200.776 191.604 200.572 192.556 200.164C193.531 199.733 194.358 199.144 195.038 198.396C195.718 197.648 196.24 196.764 196.602 195.744C196.988 194.701 197.18 193.557 197.18 192.31C197.18 191.109 196.988 189.998 196.602 188.978C196.24 187.958 195.718 187.074 195.038 186.326C194.358 185.578 193.531 185 192.556 184.592C191.604 184.161 190.539 183.946 189.36 183.946C188.181 183.946 187.105 184.161 186.13 184.592C185.178 185 184.362 185.578 183.682 186.326C183.002 187.074 182.469 187.958 182.084 188.978C181.721 189.998 181.54 191.109 181.54 192.31ZM215.085 178.812H222.157L232.323 195.234V178.812H239.395V205.91H232.323L222.157 189.182V205.91H215.085V178.812Z" fill="white"/>
</svg>
