<svg width="353" height="353" viewBox="0 0 353 353" fill="none" xmlns="http://www.w3.org/2000/svg">
<path d="M139.093 315.457C215.912 336.04 294.873 290.452 315.457 213.633C336.04 136.814 290.452 57.8536 213.633 37.2699C136.814 16.6863 57.8536 62.2742 37.27 139.093C16.6864 215.912 62.2742 294.873 139.093 315.457Z" fill="#F596A6"/>
<path d="M61.3129 208.481L64.0888 207.44L67.3852 216.809L75.1924 214.207L76.4069 217.85L58.3635 223.922L53.6792 210.563L56.4551 209.696L59.7515 219.585L64.4358 218.024L61.3129 208.481Z" fill="white"/>
<path d="M67.7323 192.347C68.0792 192.52 68.4262 192.867 68.7732 193.041C69.1202 193.388 69.2937 193.735 69.6407 194.082C69.9877 194.429 70.1612 194.949 70.3347 195.296C70.5082 195.643 70.6817 196.164 70.6817 196.511C70.8552 197.378 70.8552 198.245 70.6817 198.939C70.5082 199.807 70.3347 200.501 69.9877 201.195C69.6407 201.889 69.1202 202.409 68.4262 202.93C67.7323 203.45 67.0383 203.624 66.1708 203.797L57.4961 205.532L56.8021 201.715L64.2624 200.327C65.6503 199.98 66.5178 199.633 67.0383 198.766C67.5588 198.072 67.7323 197.204 67.5588 196.164C67.3853 195.296 66.8648 194.602 66.1708 193.908C65.4768 193.388 64.4359 193.041 63.3949 193.041L55.4142 194.602L54.7202 191.132L68.4262 188.53L69.1202 191.653L67.7323 192.347Z" fill="white"/>
<path d="M55.5877 182.978C55.2407 182.805 55.0672 182.458 54.7202 182.111C54.3732 181.764 54.1997 181.417 54.0262 180.896C53.8527 180.549 53.6792 180.029 53.6792 179.508C53.5057 178.988 53.5057 178.641 53.5057 178.121C53.5057 177.253 53.5057 176.386 53.8527 175.692C54.0262 174.998 54.5467 174.304 54.8937 173.61C55.4142 173.089 55.9347 172.569 56.6286 172.222C57.3226 171.875 58.0166 171.701 58.884 171.701L67.7322 171.354L67.9057 175.171L60.272 175.345C58.8841 175.345 57.8431 175.692 57.1491 176.386C56.6286 176.906 56.4551 177.774 56.4551 178.814C56.4551 179.682 56.8021 180.549 57.4961 181.243C58.1901 181.937 59.0575 182.284 60.0985 182.458L68.2527 182.284L68.4262 186.101L54.3732 186.622L54.1997 183.325L55.5877 182.978Z" fill="white"/>
<path d="M56.6287 167.364L58.1901 155.046L61.1395 155.393L59.5781 167.711L56.6287 167.364Z" fill="white"/>
<path d="M52.4648 145.85L71.0286 150.014L70.1611 153.657L51.5973 149.493L52.4648 145.85Z" fill="white"/>
<path d="M64.6094 145.503C63.5684 145.156 62.5274 144.636 61.8335 143.768C61.1395 143.074 60.4455 142.207 60.0985 141.339C59.7515 140.472 59.578 139.431 59.4045 138.39C59.4045 137.349 59.578 136.308 59.925 135.267C60.272 134.226 60.7925 133.359 61.4865 132.491C62.1804 131.624 62.8744 130.93 63.7419 130.583C64.6094 130.062 65.6503 129.889 66.6913 129.715C67.7322 129.542 68.7732 129.715 69.9877 130.062C71.2021 130.409 72.0696 130.93 72.7636 131.797C73.4575 132.665 74.1515 133.359 74.4985 134.226C74.8455 135.094 75.019 136.135 75.019 137.176C75.019 138.216 74.8455 139.257 74.4985 140.298C74.1515 141.339 73.631 142.38 72.9371 143.074C72.2431 143.942 71.5491 144.636 70.6816 144.983C69.8142 145.503 68.7732 145.85 67.7322 145.85C66.8648 146.024 65.8238 145.85 64.6094 145.503ZM71.8961 139.257C72.0696 138.737 72.2431 138.043 72.0696 137.523C71.8961 137.002 71.8961 136.308 71.5491 135.788C71.2021 135.267 70.8551 134.747 70.3347 134.4C69.8142 134.053 69.2937 133.706 68.5997 133.532C67.9057 133.359 67.2118 133.185 66.6913 133.185C65.9973 133.185 65.4768 133.359 64.9563 133.532C64.4359 133.706 63.9154 134.053 63.5684 134.573C63.2214 135.094 62.8744 135.441 62.7009 136.135C62.5274 136.655 62.3539 137.349 62.5274 137.87C62.5274 138.39 62.7009 139.084 63.0479 139.431C63.3949 139.951 63.7419 140.472 64.2624 140.819C64.7829 141.166 65.3033 141.513 65.9973 141.86C66.6913 142.033 67.3853 142.207 67.9057 142.207C68.5997 142.207 69.1202 142.033 69.6407 141.86C70.1612 141.686 70.6816 141.339 71.0286 140.819C71.3756 140.298 71.5491 139.778 71.8961 139.257Z" fill="white"/>
<path d="M81.6118 122.775L79.8768 126.245L64.7828 124.857L66.6913 121.387L77.1009 122.428L70.5081 114.448L72.4166 110.978L81.6118 122.775Z" fill="white"/>
<path d="M71.8961 101.436L74.8455 103.518L72.7636 106.641L69.8142 104.559L71.8961 101.436ZM76.407 104.559L88.0311 112.539L85.9491 115.662L74.325 107.682L76.407 104.559Z" fill="white"/>
<path d="M82.6527 98.8336C82.6527 98.4866 82.6527 97.9661 82.6527 97.6191C82.6527 97.0986 82.8262 96.7516 82.9997 96.2312C83.1732 95.7107 83.3467 95.3637 83.5202 95.0167C83.6937 94.6697 84.0407 94.3227 84.3876 93.9757C84.9081 93.2817 85.6021 92.7613 86.2961 92.4143C86.9901 92.0673 87.684 91.7203 88.5515 91.7203C89.2455 91.5468 90.1129 91.7203 90.8069 91.8938C91.5009 92.0673 92.1949 92.4143 92.8889 93.1083L99.6551 99.0071L97.2262 101.956L91.5009 96.9251C90.4599 96.0577 89.419 95.5372 88.5515 95.5372C87.684 95.5372 86.8166 96.0577 86.1226 96.7516C85.6021 97.4456 85.2551 98.3131 85.2551 99.1805C85.2551 100.048 85.6021 100.915 86.2961 101.783L92.3684 107.161L89.9395 110.111L79.3563 100.915L81.4382 98.4866L82.6527 98.8336Z" fill="white"/>
<path d="M113.188 86.1683C113.882 87.0358 114.402 87.9032 114.749 88.9442C115.096 89.8117 115.096 90.8526 114.923 91.7201C114.749 92.5876 114.576 93.455 114.055 94.3225C113.535 95.19 112.841 96.0575 111.973 96.7514C111.279 97.4454 110.412 97.9659 109.544 98.4864C108.677 98.8334 107.809 99.1803 106.942 99.3538C106.074 99.5273 105.207 99.3538 104.339 99.1803C103.472 99.0069 102.778 98.4864 102.084 97.7924L105.033 95.3635C105.727 96.0575 106.421 96.4044 107.289 96.231C108.156 96.231 109.024 95.884 109.718 95.19C110.238 94.843 110.585 94.3225 110.932 93.802C111.279 93.2816 111.453 92.7611 111.453 92.2406C111.453 91.7201 111.453 91.1996 111.279 90.5056C111.106 89.9852 110.759 89.2912 110.238 88.7707L109.197 87.5563C109.197 88.5972 109.024 89.4647 108.503 90.3322C107.983 91.1996 107.289 92.0671 106.421 92.7611C105.727 93.455 104.86 93.802 103.992 94.149C103.125 94.496 102.258 94.496 101.217 94.496C100.349 94.496 99.4816 94.149 98.6142 93.802C97.7467 93.455 97.0527 92.7611 96.3588 91.8936C95.6648 91.0261 95.1443 90.1587 94.9708 89.2912C94.6238 88.4237 94.6238 87.3828 94.7973 86.5153C94.9708 85.6478 95.1443 84.7803 95.6648 83.9129C96.1853 83.0454 96.7057 82.3514 97.3997 81.831C98.2672 81.137 99.3082 80.6165 100.176 80.2695C101.217 79.9225 102.084 79.9225 102.952 80.096L102.258 78.5346L104.86 76.4526L113.188 86.1683ZM105.207 89.8117C105.727 89.4647 106.074 88.9442 106.248 88.5972C106.595 88.0767 106.595 87.5562 106.768 87.0358C106.768 86.5153 106.768 85.9948 106.595 85.4743C106.421 84.9538 106.074 84.4334 105.727 83.9129C105.38 83.3924 104.86 83.0454 104.339 82.6984C103.819 82.3514 103.299 82.3514 102.778 82.1779C102.258 82.1779 101.737 82.1779 101.217 82.3514C100.696 82.5249 100.176 82.6984 99.8286 83.2189C99.3082 83.5659 98.9612 84.0864 98.7877 84.4334C98.4407 84.9538 98.4407 85.4743 98.2672 85.9948C98.2672 86.5153 98.2672 87.0358 98.4407 87.5563C98.6142 88.0767 98.9612 88.5972 99.3082 89.1177C99.6551 89.6382 100.176 89.9852 100.696 90.3322C101.217 90.6791 101.737 90.6791 102.258 90.8526C102.778 90.8526 103.299 90.8526 103.819 90.6791C104.166 90.5057 104.686 90.1587 105.207 89.8117Z" fill="white"/>
<path d="M116.831 68.2986L117.872 69.166C118.219 68.2986 118.739 67.6046 119.433 66.9106C120.127 66.2166 120.821 65.6961 121.862 65.1757C122.73 64.8287 123.597 64.4817 124.465 64.4817C125.332 64.4817 126.373 64.4817 127.241 64.8287C128.108 65.1757 128.976 65.5227 129.67 66.2166C130.364 66.9106 131.058 67.6046 131.578 68.6455C132.099 69.513 132.272 70.554 132.446 71.5949C132.446 72.6359 132.446 73.5034 132.099 74.3708C131.752 75.2383 131.405 76.1058 130.711 76.7998C130.19 77.4937 129.323 78.1877 128.455 78.5347C127.588 79.0552 126.72 79.4022 125.679 79.4022C124.638 79.5757 123.771 79.4022 122.73 79.2287L126.2 85.9949L122.73 87.7299L113.535 69.6865L116.831 68.2986ZM126.547 76.4528C127.067 76.2793 127.588 75.9323 127.935 75.4118C128.282 74.8913 128.629 74.5443 128.802 74.0239C128.976 73.5034 128.976 72.9829 128.976 72.2889C128.976 71.7684 128.802 71.0745 128.455 70.554C128.108 69.86 127.761 69.3395 127.241 68.9925C126.72 68.6455 126.373 68.2986 125.853 68.1251C125.159 67.7781 124.638 67.7781 124.118 67.7781C123.597 67.7781 123.077 67.9516 122.556 68.2986C122.036 68.6455 121.515 68.819 121.168 69.3395C120.821 69.6865 120.474 70.207 120.301 70.7275C120.127 71.248 120.127 71.7684 120.127 72.4624C120.127 72.9829 120.301 73.6769 120.648 74.3708C120.995 75.0648 121.342 75.4118 121.862 75.9323C122.383 76.2793 122.73 76.6263 123.25 76.7998C123.771 76.9733 124.291 76.9733 124.812 76.9733C125.506 76.7998 126.026 76.6263 126.547 76.4528Z" fill="white"/>
<path d="M138.691 68.819C139.212 69.513 139.906 69.86 140.773 70.0335C141.641 70.207 142.508 70.207 143.376 69.86C144.243 69.513 145.11 69.166 145.804 68.6456C146.498 68.1251 147.019 67.4311 147.366 66.3901L150.315 67.4311C149.795 68.6456 149.101 69.6865 148.233 70.554C147.366 71.4215 146.151 72.1154 144.763 72.4624C143.549 72.8094 142.508 72.9829 141.467 72.9829C140.426 72.9829 139.385 72.8094 138.518 72.2889C137.65 71.9419 136.783 71.248 136.089 70.554C135.395 69.86 134.874 68.819 134.527 67.6046C134.18 66.5636 134.007 65.3492 134.18 64.4817C134.354 63.4407 134.527 62.5733 135.048 61.7058C135.568 60.8383 136.262 60.1443 136.956 59.4504C137.824 58.7564 138.691 58.2359 139.906 57.8889C140.947 57.5419 141.988 57.3684 143.029 57.5419C144.07 57.5419 144.937 57.8889 145.804 58.2359C146.672 58.5829 147.366 59.2769 148.06 59.9709C148.754 60.6648 149.274 61.5323 149.621 62.5733L138.691 68.819ZM140.6 60.6648C139.212 61.0118 138.344 61.8793 137.65 62.7468C137.13 63.7877 136.956 65.0022 137.303 66.2166L144.937 61.7058C144.243 61.0118 143.549 60.6648 142.855 60.4913C142.161 60.3178 141.467 60.4913 140.6 60.6648Z" fill="white"/>
<path d="M155.173 56.5008C155.347 55.9804 155.867 55.4599 156.388 55.1129C156.908 54.7659 157.602 54.4189 158.296 54.4189L161.246 53.8984L161.072 56.8478L158.123 57.3683C157.776 57.3683 157.429 57.5418 157.082 57.8888C156.735 58.2358 156.561 58.4093 156.388 58.7563C156.214 59.1033 156.041 59.4502 156.041 59.9707C156.041 60.4912 156.041 60.8382 156.041 61.1852L157.429 68.8189L153.612 69.3394L151.183 55.4599L154.479 54.9394L155.173 56.5008Z" fill="white"/>
<path d="M174.605 56.501C173.911 56.154 173.217 55.807 172.523 55.6335C171.829 55.46 171.135 55.2866 170.441 55.46C168.879 55.46 168.012 55.9805 168.185 57.0215C168.185 57.3685 168.359 57.7155 168.706 57.889C169.053 58.0625 169.573 58.4094 170.267 58.4094C172.349 58.7564 174.084 59.2769 175.125 60.1444C176.166 60.8384 176.686 61.8793 176.86 63.0938C176.86 63.7878 176.86 64.4817 176.513 65.1757C176.166 65.6962 175.819 66.2167 175.298 66.7372C174.778 67.0841 174.084 67.4311 173.39 67.6046C172.696 67.7781 171.829 67.9516 170.961 67.9516C169.747 67.9516 168.532 67.9516 167.491 67.6046C166.45 67.2576 165.409 66.9107 164.542 66.2167L165.756 63.4408C166.45 63.9613 167.144 64.3082 167.838 64.4817C168.532 64.8287 169.4 64.8287 170.267 64.8287C171.308 64.8287 172.002 64.6552 172.349 64.3082C172.696 63.9613 172.87 63.6143 172.87 63.0938C172.87 62.5733 172.523 62.2263 172.176 61.8793C171.655 61.5323 171.135 61.3588 170.267 61.1854C169.226 61.0119 168.359 60.6649 167.665 60.4914C166.971 60.3179 166.277 59.9709 165.93 59.6239C165.409 59.2769 165.062 58.9299 164.889 58.4094C164.715 57.889 164.542 57.3685 164.542 56.6745C164.542 55.9805 164.542 55.46 164.889 54.9396C165.062 54.4191 165.583 53.8986 165.93 53.5516C166.45 53.2046 166.971 52.8576 167.665 52.6841C168.359 52.5107 169.226 52.3372 169.92 52.3372C170.614 52.3372 171.135 52.3372 171.655 52.3372C172.176 52.3372 172.696 52.5107 173.217 52.6841C173.737 52.8576 174.084 53.0311 174.431 53.2046C174.778 53.3781 175.125 53.5516 175.645 53.8986L174.605 56.501Z" fill="white"/>
<path d="M178.942 59.7975C179.115 58.583 179.289 57.542 179.809 56.6746C180.33 55.8071 181.024 54.9396 181.718 54.4191C182.412 53.8987 183.453 53.3782 184.494 53.2047C185.535 52.8577 186.576 52.8577 187.79 53.0312C188.831 53.2047 189.872 53.3782 190.913 53.8987C191.954 54.4191 192.648 54.9396 193.342 55.6336C194.036 56.3276 194.556 57.1951 194.903 58.236C195.25 59.1035 195.25 60.3179 195.25 61.3589C195.25 62.3999 194.903 63.6143 194.209 64.4818C193.689 65.3493 192.995 66.0432 192.127 66.7372C191.26 67.2577 190.392 67.7782 189.352 67.9517C188.311 68.2987 187.27 68.2987 186.229 68.1252C185.188 67.9517 184.147 67.7782 183.106 67.2577C182.065 66.7372 181.371 66.2167 180.677 65.5228C179.983 64.8288 179.462 63.9613 179.115 62.9204C178.942 62.0529 178.768 61.0119 178.942 59.7975ZM186.576 65.3493C187.27 65.3493 187.79 65.3493 188.311 65.1758C188.831 65.0023 189.352 64.6553 189.872 64.3083C190.219 63.9613 190.739 63.4408 190.913 62.9204C191.26 62.3999 191.433 61.7059 191.433 61.0119C191.433 60.3179 191.433 59.624 191.26 58.93C191.086 58.236 190.913 57.7155 190.566 57.3685C190.219 56.8481 189.698 56.5011 189.178 56.3276C188.658 55.9806 188.137 55.8071 187.443 55.8071C186.749 55.8071 186.229 55.8071 185.708 55.9806C185.188 56.1541 184.667 56.5011 184.147 56.8481C183.8 57.1951 183.279 57.7155 183.106 58.236C182.759 58.7565 182.585 59.4505 182.585 60.1445C182.585 60.8384 182.585 61.5324 182.759 62.0529C182.932 62.5734 183.106 63.2673 183.453 63.6143C183.8 64.1348 184.32 64.4818 184.667 64.6553C185.361 65.1758 185.882 65.3493 186.576 65.3493Z" fill="white"/>
<path d="M203.058 57.542C203.405 57.3685 203.752 57.195 204.098 57.0215C204.445 56.848 204.966 56.848 205.486 56.6745C206.007 56.501 206.354 56.6745 206.874 56.6745C207.395 56.6745 207.742 56.848 208.262 56.848C209.13 57.0215 209.824 57.3685 210.518 57.8889C211.212 58.4094 211.732 58.9299 212.253 59.4504C212.773 59.9709 212.947 60.8383 213.12 61.5323C213.294 62.2263 213.294 63.0938 212.947 63.9612L210.691 72.4624L207.048 71.4215L208.956 64.1347C209.303 62.7468 209.303 61.7058 208.783 61.0118C208.436 60.3179 207.568 59.7974 206.527 59.4504C205.66 59.2769 204.792 59.2769 203.925 59.7974C203.058 60.1444 202.537 61.0118 202.017 61.8793L199.935 69.6865L196.291 68.6456L199.935 55.113L203.058 55.9805V57.542Z" fill="white"/>
<path d="M241.053 71.5945L244.002 73.3295L237.062 85.4741L234.287 83.9126L234.807 82.0042C234.46 82.1777 233.94 82.3512 233.419 82.3512C232.899 82.3512 232.378 82.3512 231.858 82.3512C231.337 82.3512 230.817 82.1777 230.296 82.0042C229.776 81.8307 229.255 81.6572 228.908 81.3102C228.041 80.7897 227.347 80.0957 226.826 79.4018C226.306 78.7078 225.785 77.8403 225.612 76.9729C225.438 76.1054 225.265 75.0644 225.438 74.197C225.612 73.156 225.959 72.2885 226.479 71.421C227 70.5536 227.694 69.6861 228.561 69.1656C229.429 68.6451 230.296 68.1247 231.164 67.9512C232.031 67.7777 233.072 67.6042 233.94 67.7777C234.807 67.9512 235.674 68.1247 236.542 68.6451C237.583 69.1656 238.277 69.8596 238.971 70.7271C239.665 71.5945 240.012 72.462 240.185 73.3295L241.053 71.5945ZM230.99 79.2283C231.511 79.5753 232.031 79.7488 232.552 79.7488C233.072 79.7488 233.593 79.7488 234.113 79.5753C234.633 79.4018 235.154 79.2283 235.674 78.7078C236.195 78.3608 236.542 77.8403 236.889 77.3198C237.236 76.6259 237.409 76.1054 237.583 75.4114C237.756 74.8909 237.583 74.1969 237.583 73.6765C237.409 73.156 237.236 72.6355 236.889 72.2885C236.542 71.768 236.195 71.421 235.674 71.2476C235.154 70.9006 234.633 70.7271 234.113 70.7271C233.593 70.7271 233.072 70.7271 232.552 70.9006C232.031 71.0741 231.511 71.2476 230.99 71.768C230.47 72.115 230.123 72.6355 229.776 73.3295C229.429 73.85 229.255 74.5439 229.082 75.0644C228.908 75.5849 229.082 76.2789 229.082 76.7994C229.255 77.3198 229.429 77.8403 229.776 78.1873C229.949 78.5343 230.47 78.8813 230.99 79.2283Z" fill="white"/>
<path d="M253.371 74.1973L242.094 89.4648L238.971 87.2094L250.248 71.9419L253.371 74.1973Z" fill="white"/>
<path d="M257.535 90.6793L249.381 95.5372L246.952 93.2817L253.371 80.0962L255.973 82.6986L251.636 91.0263L259.617 86.342L262.046 88.5974L257.535 96.7516L265.689 92.0673L268.291 94.6697L255.279 101.609L252.85 99.354L257.535 90.6793Z" fill="white"/>
<path d="M278.181 107.855L280.089 110.631L268.638 118.786L266.73 116.183L268.118 114.622C267.597 114.622 267.25 114.448 266.73 114.275C266.209 114.101 265.862 113.928 265.342 113.581C264.821 113.234 264.474 113.06 264.127 112.54C263.781 112.193 263.434 111.846 263.087 111.325C262.566 110.458 262.219 109.59 261.872 108.723C261.699 107.855 261.699 106.815 261.872 105.947C262.046 105.08 262.393 104.212 262.913 103.345C263.434 102.477 264.127 101.783 264.995 101.089C265.862 100.395 266.73 100.048 267.771 99.8747C268.812 99.7013 269.679 99.7013 270.72 99.8747C271.588 100.048 272.455 100.395 273.323 100.916C274.19 101.436 274.884 101.957 275.405 102.824C276.099 103.692 276.619 104.733 276.793 105.774C276.966 106.815 276.966 107.682 276.793 108.549L278.181 107.855ZM265.862 110.458C266.209 110.978 266.556 111.325 267.077 111.672C267.597 112.019 268.118 112.193 268.638 112.193C269.159 112.193 269.679 112.193 270.373 112.019C270.894 111.846 271.588 111.672 272.108 111.152C272.629 110.805 273.149 110.284 273.496 109.764C273.843 109.243 274.017 108.723 274.19 108.202C274.364 107.682 274.19 107.161 274.19 106.641C274.19 106.121 273.843 105.6 273.496 105.08C273.149 104.559 272.802 104.212 272.282 103.865C271.761 103.518 271.241 103.345 270.72 103.345C270.2 103.345 269.679 103.345 268.985 103.518C268.465 103.692 267.771 104.039 267.25 104.386C266.73 104.733 266.209 105.253 265.862 105.774C265.515 106.294 265.342 106.815 265.168 107.335C264.995 107.855 265.168 108.376 265.168 108.896C265.168 109.417 265.515 109.937 265.862 110.458Z" fill="white"/>
<path d="M276.446 129.889C275.578 129.715 274.884 129.368 274.19 128.674C273.496 127.98 272.976 127.286 272.629 126.592C272.282 125.725 271.935 125.031 271.935 124.163C271.935 123.296 271.935 122.602 272.108 121.734C272.282 121.041 272.629 120.347 273.149 119.653C273.67 118.959 274.364 118.612 275.058 118.091L282.344 114.448L284.079 117.918L277.66 121.041C276.446 121.735 275.578 122.428 275.231 123.296C274.884 124.163 275.058 125.031 275.405 125.898C275.752 126.766 276.446 127.286 277.313 127.633C278.18 127.98 279.048 127.98 280.089 127.807L287.029 124.337L288.764 127.807L276.792 133.706C275.752 134.226 274.884 134.573 273.843 134.573C272.976 134.747 271.935 134.573 271.241 134.226C270.373 133.879 269.679 133.532 268.985 132.838C268.291 132.144 267.771 131.45 267.25 130.583C266.73 129.715 266.556 128.848 266.209 127.98C266.036 127.113 266.036 126.245 266.036 125.378C266.036 124.51 266.383 123.816 266.903 123.122C267.424 122.428 267.944 121.734 268.812 121.214L270.547 124.684C269.679 125.204 269.332 125.725 268.985 126.419C268.812 127.113 268.985 127.807 269.332 128.674C269.853 129.715 270.547 130.409 271.588 130.583C272.629 130.93 273.67 130.756 275.058 130.062L276.446 129.889Z" fill="white"/>
<path d="M290.325 142.728C290.499 142.034 290.672 141.34 290.672 140.472C290.672 139.778 290.499 139.084 290.325 138.39C289.805 136.829 289.111 136.308 288.243 136.482C287.896 136.655 287.549 136.829 287.549 137.176C287.376 137.523 287.376 138.043 287.376 138.911C287.549 141.166 287.376 142.728 287.029 143.942C286.682 145.157 285.814 145.85 284.6 146.371C283.906 146.544 283.212 146.718 282.518 146.544C281.824 146.371 281.303 146.197 280.783 145.85C280.262 145.504 279.742 144.983 279.395 144.289C279.048 143.595 278.701 142.901 278.354 142.034C278.007 140.819 277.833 139.778 277.833 138.564C277.833 137.349 278.007 136.482 278.354 135.441L281.303 135.961C280.956 136.655 280.783 137.523 280.783 138.217C280.783 139.084 280.783 139.778 281.13 140.646C281.477 141.687 281.824 142.207 282.171 142.554C282.518 142.901 283.038 142.901 283.559 142.728C284.079 142.554 284.253 142.207 284.426 141.687C284.6 141.166 284.6 140.472 284.6 139.605C284.6 138.564 284.6 137.696 284.6 136.829C284.6 136.135 284.773 135.441 284.947 134.92C285.12 134.4 285.467 133.879 285.814 133.532C286.161 133.185 286.682 132.838 287.376 132.665C288.07 132.491 288.59 132.491 289.111 132.491C289.631 132.665 290.152 132.838 290.672 133.185C291.193 133.532 291.713 134.053 292.06 134.573C292.407 135.267 292.754 135.961 293.101 136.655C293.274 137.349 293.448 137.87 293.621 138.39C293.621 138.911 293.795 139.431 293.795 139.952C293.795 140.472 293.795 140.819 293.621 141.34C293.621 141.687 293.448 142.207 293.274 142.554L290.325 142.728Z" fill="white"/>
<path d="M297.265 158.168L297.785 161.638L294.836 162.158L294.315 158.689L287.723 159.73C287.202 159.73 286.855 159.903 286.682 160.25C286.508 160.597 286.335 160.944 286.508 161.464L286.855 163.72L283.906 164.24L283.385 160.423C283.385 159.903 283.385 159.383 283.385 159.036C283.559 158.515 283.559 158.168 283.906 157.821C284.079 157.474 284.426 157.127 284.947 156.78C285.294 156.607 285.814 156.433 286.335 156.26L293.795 155.045L293.274 152.269L296.224 151.749L296.744 154.525L301.602 153.831L302.123 157.648L297.265 158.168Z" fill="white"/>
<path d="M296.744 168.578C297.265 168.925 297.612 169.272 297.959 169.966C298.306 170.486 298.479 171.18 298.479 172.048L298.653 174.997L295.703 174.477L295.53 171.527C295.53 171.18 295.356 170.833 295.183 170.486C295.009 170.139 294.662 169.966 294.315 169.619C293.968 169.272 293.621 169.272 293.274 169.098C292.927 168.925 292.407 168.925 292.06 168.925L284.253 169.272L284.079 165.455L298.132 164.761L298.306 168.057L296.744 168.578Z" fill="white"/>
<path d="M285.641 188.356C284.947 187.836 284.6 186.969 284.426 186.275C284.253 185.581 284.079 184.54 284.253 183.672C284.426 182.805 284.6 181.937 284.947 181.243C285.294 180.549 285.814 179.855 286.335 179.335C286.855 178.814 287.549 178.467 288.243 178.12C288.937 177.773 289.804 177.773 290.672 177.773L298.826 178.467L298.479 182.284L291.366 181.764C289.978 181.59 288.937 181.937 288.243 182.458C287.549 182.978 287.202 183.846 287.028 184.887C287.028 185.754 287.202 186.622 287.722 187.316C288.243 188.009 289.11 188.53 289.978 188.877L297.785 189.571L297.438 193.388L284.079 192.173C283.038 192 281.997 191.826 281.13 191.479C280.262 191.132 279.568 190.438 279.048 189.918C278.527 189.224 278.007 188.53 277.833 187.662C277.486 186.795 277.486 185.754 277.486 184.713C277.486 183.672 277.66 182.805 278.007 181.937C278.354 181.07 278.701 180.376 279.221 179.682C279.742 178.988 280.436 178.467 281.13 178.12C281.824 177.773 282.865 177.6 283.732 177.6L283.385 181.417C282.518 181.417 281.824 181.59 281.303 182.111C280.783 182.631 280.436 183.325 280.436 184.366C280.262 185.581 280.609 186.448 281.303 187.142C281.997 187.836 283.038 188.356 284.426 188.53L285.641 188.356Z" fill="white"/>
<path d="M295.53 201.715L281.824 198.94L282.518 195.296L296.224 198.072L295.53 201.715ZM301.082 202.756L297.438 202.062L298.132 198.419L301.776 199.113L301.082 202.756Z" fill="white"/>
<path d="M292.06 209.349C292.233 209.696 292.407 210.043 292.58 210.564C292.754 210.911 292.754 211.431 292.754 211.951C292.754 212.472 292.754 212.819 292.754 213.339C292.754 213.86 292.58 214.207 292.407 214.727C292.06 215.595 291.713 216.289 291.192 216.983C290.672 217.677 290.151 218.197 289.457 218.544C288.763 218.891 288.07 219.238 287.376 219.238C286.682 219.412 285.814 219.238 284.947 219.065L276.619 216.289L277.833 212.645L284.947 215.074C286.335 215.595 287.376 215.595 288.07 215.248C288.937 214.901 289.457 214.207 289.804 213.166C290.151 212.298 289.978 211.431 289.631 210.564C289.284 209.696 288.59 209.002 287.549 208.482L279.915 205.879L281.13 202.236L294.489 206.573L293.448 209.696L292.06 209.349Z" fill="white"/>
<path d="M268.812 232.944C267.771 232.423 267.077 231.729 266.383 231.036C265.689 230.342 265.342 229.474 265.168 228.607C264.995 227.739 264.821 226.698 264.995 225.831C265.168 224.79 265.342 223.922 265.862 222.881C266.383 222.014 266.903 221.146 267.424 220.452C267.944 219.758 268.812 219.064 269.506 218.717C270.2 218.197 271.067 218.023 271.934 217.85C272.802 217.676 273.669 217.85 274.71 218.37L272.975 221.84C272.108 221.493 271.414 221.493 270.547 221.84C269.853 222.187 269.159 222.881 268.638 223.922C268.291 224.443 268.118 224.963 268.118 225.657C268.118 226.178 268.118 226.698 268.118 227.219C268.118 227.739 268.465 228.26 268.985 228.607C269.332 229.127 269.853 229.474 270.547 229.821L272.108 230.515C271.761 229.648 271.587 228.607 271.587 227.739C271.761 226.698 271.934 225.657 272.455 224.79C272.975 223.922 273.496 223.228 274.19 222.534C274.884 221.84 275.751 221.493 276.619 221.146C277.486 220.799 278.354 220.799 279.395 220.799C280.436 220.799 281.303 221.146 282.171 221.667C283.212 222.187 283.906 222.881 284.6 223.575C285.293 224.269 285.64 225.137 285.814 226.004C285.987 226.872 286.161 227.739 285.987 228.78C285.814 229.648 285.64 230.515 285.293 231.382C284.773 232.423 284.079 233.291 283.385 233.985C282.691 234.679 281.824 235.026 280.783 235.199L282.171 236.414L280.609 239.363L268.812 232.944ZM274.884 226.525C274.537 227.045 274.537 227.566 274.363 228.086C274.363 228.607 274.363 229.127 274.537 229.648C274.71 230.168 274.884 230.689 275.404 231.036C275.751 231.556 276.272 231.903 276.792 232.076C277.313 232.423 278.007 232.597 278.527 232.597C279.048 232.597 279.568 232.597 280.089 232.423C280.609 232.25 281.13 232.076 281.477 231.729C281.824 231.382 282.171 230.862 282.518 230.342C282.865 229.821 282.865 229.301 283.038 228.78C283.038 228.26 283.038 227.739 282.865 227.219C282.691 226.698 282.518 226.178 281.997 225.831C281.65 225.31 281.13 224.963 280.609 224.79C280.089 224.443 279.568 224.269 278.874 224.269C278.354 224.269 277.833 224.269 277.313 224.443C276.792 224.616 276.272 224.79 275.925 225.137C275.404 225.484 275.057 226.004 274.884 226.525Z" fill="white"/>
<path d="M271.414 252.028L269.159 254.804L266.903 253.069L269.159 250.293L263.954 246.13C263.607 245.783 263.26 245.783 262.913 245.783C262.566 245.783 262.219 245.956 261.872 246.477L260.484 248.212L258.229 246.477L260.657 243.527C261.004 243.18 261.351 242.833 261.698 242.486C262.045 242.139 262.566 242.139 262.913 241.966C263.26 241.792 263.78 241.966 264.301 241.966C264.821 242.139 265.168 242.313 265.689 242.66L271.588 247.344L273.322 245.089L275.578 246.824L273.843 249.079L277.66 252.028L275.231 254.978L271.414 252.028Z" fill="white"/>
<path d="M262.392 252.202C263.26 253.07 263.78 253.937 264.127 254.978C264.474 256.019 264.648 256.887 264.648 257.928C264.648 258.969 264.301 259.836 263.78 260.877C263.26 261.744 262.739 262.612 261.872 263.479C261.004 264.173 260.137 264.867 259.269 265.214C258.229 265.735 257.361 265.908 256.32 265.908C255.279 265.908 254.238 265.735 253.371 265.388C252.33 265.041 251.462 264.347 250.595 263.479C249.727 262.612 249.207 261.744 248.86 260.703C248.513 259.662 248.339 258.795 248.513 257.754C248.513 256.713 248.86 255.846 249.38 254.805C249.901 253.764 250.421 253.07 251.289 252.202C252.156 251.335 253.024 250.814 253.891 250.294C254.932 249.773 255.8 249.6 256.841 249.6C257.882 249.6 258.749 249.773 259.79 250.12C260.657 250.814 261.525 251.335 262.392 252.202ZM253.197 254.631C252.677 255.152 252.33 255.499 252.156 256.019C251.983 256.54 251.809 257.06 251.809 257.754C251.809 258.275 251.983 258.969 252.156 259.489C252.33 260.009 252.85 260.53 253.197 261.05C253.718 261.571 254.238 261.918 254.759 262.265C255.279 262.612 255.973 262.612 256.494 262.785C257.014 262.959 257.708 262.785 258.229 262.438C258.749 262.265 259.27 261.918 259.79 261.397C260.31 260.877 260.657 260.53 260.831 259.836C261.004 259.315 261.178 258.795 261.178 258.101C261.178 257.581 261.004 256.887 260.831 256.366C260.657 255.846 260.137 255.152 259.79 254.805C259.27 254.284 258.749 253.937 258.229 253.59C257.708 253.243 257.014 253.243 256.494 253.07C255.973 253.07 255.279 253.07 254.759 253.417C254.065 253.764 253.544 254.111 253.197 254.631Z" fill="white"/>
<path d="M237.062 277.359C237.756 277.359 238.624 277.359 239.318 277.185C240.012 277.012 240.706 276.665 241.226 276.318C242.614 275.45 242.961 274.583 242.441 273.889C242.267 273.542 241.92 273.368 241.573 273.368C241.226 273.368 240.706 273.368 239.838 273.715C237.756 274.409 236.195 274.756 234.807 274.583C233.419 274.409 232.552 273.889 231.858 272.848C231.511 272.154 231.164 271.633 231.164 270.94C231.164 270.246 231.164 269.725 231.511 269.031C231.684 268.511 232.205 267.817 232.725 267.296C233.246 266.776 233.939 266.255 234.633 265.735C235.674 265.041 236.715 264.52 237.756 264.347C238.797 264 239.838 264 240.879 264L241.226 266.949C240.359 266.776 239.665 266.949 238.797 266.949C237.93 267.123 237.236 267.47 236.542 267.817C235.674 268.337 235.154 268.858 234.98 269.205C234.807 269.552 234.807 270.072 235.154 270.593C235.501 270.939 235.848 271.286 236.368 271.286C236.889 271.286 237.583 271.113 238.45 270.94C239.491 270.593 240.359 270.419 241.053 270.246C241.747 270.072 242.441 270.072 242.961 270.072C243.482 270.072 244.002 270.246 244.523 270.593C244.87 270.939 245.39 271.286 245.737 271.807C246.084 272.327 246.258 272.848 246.258 273.542C246.258 274.062 246.258 274.756 246.084 275.277C245.911 275.797 245.564 276.491 245.043 277.012C244.523 277.532 244.002 278.053 243.308 278.573C242.788 278.92 242.267 279.267 241.747 279.441C241.226 279.614 240.706 279.788 240.359 279.961C239.838 280.135 239.491 280.135 238.971 280.135C238.45 280.135 238.103 280.135 237.583 280.135L237.062 277.359Z" fill="white"/>
<path d="M227 276.144C226.306 275.624 225.612 275.277 224.918 275.103C224.05 274.93 223.183 275.103 222.315 275.624C221.448 275.971 220.754 276.491 220.06 277.185C219.539 277.879 219.019 278.573 218.846 279.614L215.896 278.92C216.243 277.706 216.764 276.491 217.631 275.45C218.499 274.409 219.539 273.715 220.754 273.021C221.795 272.501 222.836 272.154 224.05 272.154C225.091 271.98 226.132 272.154 227.173 272.501C228.214 272.848 229.082 273.195 229.776 273.889C230.643 274.583 231.164 275.45 231.684 276.491C232.205 277.532 232.378 278.573 232.378 279.614C232.378 280.655 232.205 281.696 231.858 282.563C231.511 283.431 230.99 284.298 230.123 285.166C229.429 285.86 228.561 286.554 227.52 287.074C226.479 287.595 225.438 287.768 224.397 287.942C223.356 287.942 222.489 287.942 221.621 287.595C220.754 287.248 219.886 286.901 219.193 286.207C218.499 285.513 217.805 284.819 217.284 283.778L227 276.144ZM226.132 284.472C227.347 283.951 228.214 283.084 228.735 282.043C229.082 281.002 229.082 279.787 228.561 278.573L221.621 284.125C222.315 284.645 223.183 284.992 223.877 285.166C224.571 285.339 225.438 284.819 226.132 284.472Z" fill="white"/>
<path d="M210.171 283.084C209.65 282.39 208.956 282.043 208.262 281.696C207.568 281.523 206.527 281.523 205.66 281.87C204.792 282.217 203.925 282.564 203.231 283.084C202.537 283.605 202.017 284.298 201.67 285.166L198.894 283.952C199.414 282.737 200.108 281.696 201.149 280.829C202.19 279.961 203.231 279.441 204.619 278.92C205.833 278.573 206.874 278.4 207.915 278.573C208.956 278.747 209.997 278.92 210.865 279.267C211.732 279.788 212.6 280.308 213.294 281.176C213.988 282.043 214.508 282.911 214.855 284.125C215.202 285.166 215.202 286.38 215.029 287.421C214.855 288.462 214.508 289.33 213.988 290.197C213.467 291.065 212.773 291.759 211.906 292.453C211.038 293.147 209.997 293.494 208.956 293.841C207.915 294.188 206.874 294.188 205.833 294.188C204.792 294.014 203.925 293.841 203.058 293.32C202.19 292.8 201.496 292.279 200.802 291.585C200.108 290.891 199.761 289.85 199.414 288.983L210.171 283.084ZM207.915 291.065C209.303 290.718 210.344 290.024 210.865 288.983C211.385 287.942 211.559 286.901 211.385 285.513L203.578 289.85C204.272 290.544 204.966 290.891 205.66 291.065C206.354 291.412 207.221 291.412 207.915 291.065Z" fill="white"/>
<path d="M185.882 283.257L192.301 288.462L191.607 282.563L195.424 282.043L197.679 300.78L193.862 301.301L192.648 291.238L187.79 296.963L183.279 297.484L189.351 290.197L181.371 283.604L185.882 283.257Z" fill="white"/>
<path d="M169.92 297.484L169.4 296.096C168.706 296.616 167.838 296.963 166.971 297.137C166.103 297.31 165.062 297.484 164.021 297.31C163.154 297.31 162.286 296.963 161.419 296.443C160.551 295.923 159.857 295.402 159.337 294.708C158.643 294.014 158.296 293.147 157.949 292.106C157.602 291.065 157.602 290.197 157.602 288.983C157.776 287.942 157.949 286.901 158.47 286.033C158.99 285.166 159.51 284.472 160.204 283.778C160.898 283.257 161.766 282.737 162.633 282.39C163.501 282.043 164.542 282.043 165.409 282.043C166.45 282.043 167.318 282.39 168.185 282.737C169.053 283.084 169.92 283.778 170.441 284.472L171.135 276.838L174.951 277.185L173.217 297.31L169.92 297.484ZM165.756 285.513C165.236 285.513 164.715 285.513 164.021 285.686C163.501 285.86 162.98 286.033 162.633 286.38C162.286 286.727 161.939 287.248 161.592 287.768C161.245 288.289 161.245 288.983 161.072 289.677C161.072 290.371 161.072 291.065 161.245 291.585C161.419 292.106 161.592 292.626 161.939 293.147C162.286 293.494 162.633 293.841 163.154 294.188C163.674 294.361 164.195 294.535 164.715 294.708C165.236 294.708 165.93 294.708 166.45 294.535C166.971 294.361 167.491 294.188 167.838 293.841C168.185 293.494 168.532 292.973 168.879 292.453C169.226 291.932 169.226 291.238 169.4 290.544C169.4 289.85 169.4 289.156 169.226 288.636C169.053 288.115 168.879 287.595 168.532 287.074C168.185 286.727 167.838 286.38 167.318 286.033C166.971 285.686 166.277 285.686 165.756 285.513Z" fill="white"/>
<path d="M148.407 299.393L152.224 280.829L155.867 281.523L152.05 300.26L148.407 299.393Z" fill="white"/>
<path d="M144.764 283.778C144.764 282.91 144.417 282.216 143.896 281.522C143.376 280.828 142.682 280.482 141.641 280.135C140.773 279.788 139.906 279.788 139.038 279.788C138.171 279.788 137.303 280.135 136.436 280.655L134.701 278.053C135.742 277.359 136.956 276.838 138.344 276.838C139.732 276.838 140.947 276.838 142.161 277.185C143.202 277.532 144.243 278.053 145.111 278.747C145.978 279.441 146.672 280.135 147.192 281.002C147.713 281.869 148.06 282.91 148.06 283.951C148.06 284.992 148.06 286.033 147.713 287.248C147.366 288.289 146.845 289.33 146.152 290.024C145.458 290.718 144.59 291.412 143.723 291.759C142.855 292.106 141.814 292.453 140.773 292.453C139.732 292.453 138.691 292.279 137.477 291.932C136.436 291.585 135.568 291.065 134.701 290.371C134.007 289.677 133.313 288.983 132.792 288.115C132.272 287.248 132.098 286.38 131.925 285.339C131.752 284.298 131.925 283.257 132.272 282.216L144.764 283.778ZM138.344 289.33C139.732 289.85 140.947 289.677 141.988 289.33C143.029 288.809 143.723 287.942 144.243 286.727L135.395 286.033C135.568 286.901 135.915 287.768 136.436 288.289C136.956 288.636 137.477 288.983 138.344 289.33Z" fill="white"/>
<path d="M115.27 281.349L112.32 279.788L118.913 267.296L121.689 268.858L121.168 270.766C121.515 270.593 122.036 270.419 122.556 270.419C123.077 270.419 123.597 270.419 124.118 270.419C124.638 270.419 125.159 270.593 125.679 270.766C126.2 270.94 126.72 271.113 127.067 271.287C127.935 271.807 128.629 272.327 129.323 273.195C129.843 273.889 130.364 274.756 130.711 275.624C131.058 276.491 131.058 277.532 131.058 278.4C131.058 279.441 130.711 280.308 130.19 281.349C129.67 282.39 128.976 283.084 128.282 283.778C127.414 284.472 126.72 284.819 125.679 285.166C124.812 285.513 123.771 285.513 122.903 285.513C122.036 285.513 120.995 285.166 120.301 284.819C119.26 284.299 118.392 283.605 117.699 282.911C117.005 282.217 116.658 281.349 116.484 280.308L115.27 281.349ZM125.159 273.542C124.638 273.195 124.118 273.195 123.597 273.021C123.077 273.021 122.556 273.021 122.036 273.195C121.515 273.368 120.995 273.715 120.648 274.062C120.127 274.409 119.78 274.93 119.433 275.624C119.086 276.318 118.913 276.838 118.913 277.532C118.913 278.053 118.913 278.747 119.086 279.267C119.26 279.788 119.433 280.308 119.78 280.655C120.127 281.002 120.648 281.349 121.168 281.696C121.689 282.043 122.209 282.043 122.73 282.217C123.25 282.217 123.771 282.217 124.291 282.043C124.812 281.87 125.332 281.523 125.679 281.176C126.2 280.829 126.547 280.308 126.894 279.614C127.241 278.92 127.414 278.4 127.414 277.879C127.414 277.359 127.414 276.665 127.241 276.144C127.067 275.624 126.894 275.103 126.547 274.756C126.026 274.236 125.679 273.889 125.159 273.542Z" fill="white"/>
<path d="M102.604 268.511C102.778 269.205 103.125 269.899 103.645 270.419C104.166 271.113 104.513 271.46 105.033 271.807C106.248 272.674 107.289 272.848 107.809 272.154C107.983 271.807 108.156 271.46 107.983 271.113C107.983 270.766 107.636 270.246 107.115 269.725C105.727 267.99 104.86 266.602 104.513 265.388C104.166 264.173 104.339 263.132 105.033 262.091C105.554 261.397 106.074 261.05 106.595 260.703C107.115 260.356 107.809 260.183 108.503 260.356C109.197 260.356 109.891 260.53 110.585 260.877C111.279 261.224 111.973 261.571 112.841 262.091C113.882 262.785 114.749 263.653 115.27 264.52C115.963 265.388 116.31 266.429 116.657 267.47L114.055 268.858C113.882 268.164 113.535 267.296 113.188 266.602C112.841 265.908 112.147 265.388 111.453 264.867C110.585 264.173 109.891 264 109.544 263.826C109.024 263.826 108.677 264 108.33 264.52C107.983 264.867 107.983 265.388 108.156 265.908C108.33 266.429 108.677 266.949 109.197 267.643C109.891 268.511 110.412 269.205 110.759 269.899C111.106 270.593 111.453 271.113 111.626 271.633C111.8 272.154 111.8 272.674 111.626 273.195C111.453 273.715 111.279 274.236 110.932 274.756C110.585 275.277 110.065 275.624 109.544 275.971C109.024 276.318 108.503 276.318 107.809 276.318C107.115 276.318 106.595 276.144 105.901 275.971C105.207 275.797 104.513 275.277 103.819 274.756C103.298 274.409 102.778 273.889 102.431 273.542C102.084 273.195 101.737 272.848 101.39 272.327C101.043 271.98 100.87 271.46 100.696 271.113C100.523 270.766 100.349 270.246 100.176 269.899L102.604 268.511Z" fill="white"/>
<path d="M96.8793 251.161C97.2262 251.161 97.7467 251.161 98.0937 251.161C98.6142 251.335 98.9612 251.335 99.3082 251.508C99.6552 251.682 100.176 251.855 100.523 252.202C100.87 252.376 101.217 252.723 101.564 253.07C102.258 253.764 102.778 254.284 103.125 255.152C103.472 255.846 103.646 256.713 103.819 257.407C103.819 258.101 103.819 258.969 103.472 259.663C103.299 260.357 102.778 261.051 102.258 261.745L96.0118 268.164L93.2359 265.561L98.4407 260.183C99.4817 259.142 100.002 258.275 100.002 257.407C100.002 256.54 99.6552 255.672 98.7877 254.978C98.0937 254.284 97.3997 253.937 96.3588 253.937C95.4913 253.937 94.4503 254.284 93.5829 254.805L87.8576 260.53L85.0817 257.928L94.7973 247.865L97.0527 250.12L96.8793 251.161Z" fill="white"/>
<path d="M81.6117 250.468C81.0912 250.468 80.3972 250.294 79.8767 250.121C79.3563 249.774 78.8358 249.427 78.3153 248.733L76.4069 246.304L79.0093 244.916L80.9177 247.345C81.0912 247.692 81.4382 247.865 81.7852 248.039C82.1322 248.212 82.4791 248.212 82.8261 248.212C83.1731 248.212 83.6936 248.212 84.0406 248.039C84.3876 247.865 84.7346 247.692 85.0816 247.518L91.1538 242.66L93.5828 245.61L82.4791 254.285L80.3972 251.682L81.6117 250.468Z" fill="white"/>
<path d="M80.7442 235.72C81.2647 235.026 81.4382 234.332 81.4382 233.465C81.4382 232.597 81.2647 231.73 80.7442 230.862C80.2237 229.995 79.7033 229.301 79.0093 228.78C78.3153 228.26 77.4478 227.913 76.5804 227.739L76.9274 224.79C78.1418 224.964 79.3563 225.484 80.3972 226.178C81.4382 226.872 82.3057 227.913 82.9996 229.127C83.5201 230.168 84.0406 231.209 84.2141 232.25C84.3876 233.291 84.3876 234.332 84.2141 235.373C84.0406 236.414 83.6936 237.282 82.9996 238.149C82.4792 239.017 81.6117 239.711 80.5707 240.404C79.5298 240.925 78.4888 241.272 77.4478 241.445C76.4069 241.619 75.3659 241.445 74.4984 241.272C73.631 240.925 72.59 240.578 71.896 239.884C71.0286 239.19 70.3346 238.323 69.8141 237.455C69.2936 236.414 68.9466 235.547 68.7731 234.506C68.5996 233.465 68.5996 232.597 68.9466 231.556C69.1201 230.689 69.6406 229.821 70.1611 228.954C70.6816 228.086 71.549 227.392 72.4165 226.872L80.7442 235.72ZM72.243 235.547C72.937 236.761 73.8045 237.629 75.0189 237.802C76.0599 238.149 77.2743 237.976 78.4888 237.282L72.4165 230.862C71.896 231.556 71.7225 232.424 71.7225 233.118C71.7225 234.159 71.896 234.853 72.243 235.547Z" fill="white"/>
<path d="M176.383 261.245C223.243 261.245 261.23 223.258 261.23 176.398C261.23 129.539 223.243 91.5515 176.383 91.5515C129.524 91.5515 91.5366 129.539 91.5366 176.398C91.5366 223.258 129.524 261.245 176.383 261.245Z" fill="#FDD938"/>
<path d="M153.243 150.687C156.083 150.687 158.386 145.795 158.386 139.76C158.386 133.725 156.083 128.833 153.243 128.833C150.403 128.833 148.101 133.725 148.101 139.76C148.101 145.795 150.403 150.687 153.243 150.687Z" fill="#231F20"/>
<path d="M196.31 150.687C199.15 150.687 201.452 145.795 201.452 139.76C201.452 133.725 199.15 128.833 196.31 128.833C193.47 128.833 191.167 133.725 191.167 139.76C191.167 145.795 193.47 150.687 196.31 150.687Z" fill="#231F20"/>
<path d="M124.318 171.899C130.42 197.05 153.249 214.46 178.31 213.652C201.629 212.905 222.176 196.55 228.449 173.393" stroke="#231F20" stroke-width="5" stroke-miterlimit="10" stroke-linecap="round"/>
<path d="M119.176 180.255C119.343 176.997 120.387 173.844 122.197 171.128C124.007 168.413 126.516 166.237 129.461 164.828" stroke="#231F20" stroke-width="5" stroke-miterlimit="10" stroke-linecap="round"/>
<path d="M233.591 182.183C233.422 178.925 232.377 175.772 230.567 173.057C228.757 170.342 226.249 168.166 223.306 166.757" stroke="#231F20" stroke-width="5" stroke-miterlimit="10" stroke-linecap="round"/>
</svg>
