<svg width="277" height="277" viewBox="0 0 277 277" fill="none" xmlns="http://www.w3.org/2000/svg">
<rect x="138.875" y="0.989258" width="195" height="195" rx="40" transform="rotate(45 138.875 0.989258)" fill="#3A88C8"/>
<path fill-rule="evenodd" clip-rule="evenodd" d="M138.847 165.331C140.589 177.731 138.806 187.349 134.635 194.145C130.465 200.941 123.407 205.731 113.172 207.169C123.407 205.731 131.512 208.39 137.394 213.773C143.276 219.156 147.641 227.91 149.384 240.31C147.641 227.91 149.425 218.292 153.595 211.496C157.766 204.7 164.824 199.91 175.059 198.472C164.824 199.91 156.719 197.251 150.837 191.868C144.954 186.485 140.589 177.731 138.847 165.331Z" fill="#FFD600"/>
<path fill-rule="evenodd" clip-rule="evenodd" d="M117.872 45.9518C119.322 56.2695 117.838 64.2717 114.368 69.9265C110.898 75.5814 105.025 79.5669 96.509 80.7638C105.025 79.5669 111.769 81.7793 116.663 86.2585C121.558 90.7377 125.19 98.021 126.64 108.339C125.19 98.021 126.674 90.0188 130.144 84.364C133.614 78.7092 139.487 74.7236 148.003 73.5268C139.487 74.7236 132.743 72.5112 127.848 68.032C122.954 63.5528 119.322 56.2695 117.872 45.9518Z" fill="#FFD600"/>
<path fill-rule="evenodd" clip-rule="evenodd" d="M212.422 105.414C213.498 113.07 212.397 119.008 209.822 123.204C207.247 127.4 202.889 130.358 196.569 131.246C202.889 130.358 207.893 131.999 211.525 135.323C215.157 138.647 217.852 144.052 218.928 151.708C217.852 144.052 218.953 138.114 221.528 133.917C224.103 129.721 228.461 126.764 234.781 125.876C228.461 126.764 223.457 125.122 219.825 121.798C216.193 118.474 213.498 113.07 212.422 105.414Z" fill="#FFD600"/>
<path d="M62.7651 140.914C64.0017 141.964 65.4484 142.816 67.1051 143.469C68.7617 144.123 70.4651 144.438 72.2151 144.414C73.3817 144.391 74.2334 144.216 74.7701 143.889C75.3067 143.563 75.5751 143.073 75.5751 142.419C75.5751 141.649 75.2601 141.031 74.6301 140.564C74.0234 140.098 72.9967 139.666 71.5501 139.269C70.3134 138.919 69.0417 138.546 67.7351 138.149C66.4284 137.729 65.2384 137.181 64.1651 136.504C63.0917 135.828 62.2051 134.964 61.5051 133.914C60.8284 132.864 60.4901 131.511 60.4901 129.854C60.4901 128.384 60.7701 127.124 61.3301 126.074C61.9134 125.001 62.6951 124.126 63.6751 123.449C64.6784 122.749 65.8334 122.236 67.1401 121.909C68.4701 121.583 69.8701 121.419 71.3401 121.419C72.3667 121.419 73.3351 121.489 74.2451 121.629C75.1784 121.769 76.0884 121.991 76.9751 122.294C77.8851 122.574 78.7717 122.936 79.6351 123.379C80.5217 123.823 81.4317 124.359 82.3651 124.989L79.4951 130.589C78.3751 129.726 77.1384 129.049 75.7851 128.559C74.4317 128.069 73.0084 127.801 71.5151 127.754C71.0251 127.731 70.5584 127.754 70.1151 127.824C69.6951 127.871 69.3217 127.976 68.9951 128.139C68.6684 128.279 68.4001 128.466 68.1901 128.699C68.0034 128.933 67.9101 129.224 67.9101 129.574C67.9101 129.924 67.9567 130.239 68.0501 130.519C68.1667 130.776 68.3767 131.021 68.6801 131.254C68.9834 131.488 69.4151 131.721 69.9751 131.954C70.5584 132.188 71.3284 132.433 72.2851 132.689C73.7784 133.109 75.1784 133.553 76.4851 134.019C77.8151 134.463 78.9701 135.034 79.9501 135.734C80.9301 136.411 81.7001 137.263 82.2601 138.289C82.8201 139.316 83.1001 140.611 83.1001 142.174C83.1001 143.621 82.8201 144.881 82.2601 145.954C81.7001 147.028 80.9184 147.914 79.9151 148.614C78.9117 149.314 77.7217 149.839 76.3451 150.189C74.9684 150.539 73.4634 150.714 71.8301 150.714C69.4967 150.714 67.3151 150.364 65.2851 149.664C63.2784 148.964 61.4117 147.996 59.6851 146.759L62.7651 140.914ZM98.9802 134.229C97.3702 134.229 96.1102 134.731 95.2002 135.734C94.2902 136.738 93.8352 138.044 93.8352 139.654C93.8352 140.424 93.9519 141.136 94.1852 141.789C94.4185 142.443 94.7569 143.014 95.2002 143.504C95.6435 143.971 96.1802 144.344 96.8102 144.624C97.4402 144.904 98.1635 145.044 98.9802 145.044C100.1 145.044 101.104 144.799 101.99 144.309C102.877 143.796 103.624 143.038 104.23 142.034L108.955 145.989C108.349 146.759 107.695 147.448 106.995 148.054C106.295 148.684 105.537 149.221 104.72 149.664C103.904 150.108 103.005 150.446 102.025 150.679C101.045 150.936 99.9719 151.064 98.8052 151.064C97.0785 151.064 95.4685 150.796 93.9752 150.259C92.4819 149.723 91.1869 148.953 90.0902 147.949C88.9935 146.969 88.1302 145.779 87.5002 144.379C86.8935 142.979 86.5902 141.404 86.5902 139.654C86.5902 137.904 86.9052 136.329 87.5352 134.929C88.1652 133.529 89.0285 132.328 90.1252 131.324C91.2219 130.321 92.5052 129.551 93.9752 129.014C95.4685 128.478 97.0785 128.209 98.8052 128.209C100.999 128.209 102.924 128.664 104.58 129.574C106.26 130.461 107.73 131.709 108.99 133.319L104.23 137.239C103.67 136.283 102.947 135.548 102.06 135.034C101.174 134.498 100.147 134.229 98.9802 134.229ZM118.482 131.079C119.019 130.473 119.695 130.018 120.512 129.714C121.329 129.411 122.18 129.259 123.067 129.259H127.617L126.357 135.279H122.157C121.737 135.279 121.34 135.373 120.967 135.559C120.594 135.746 120.267 136.003 119.987 136.329C119.707 136.656 119.485 137.041 119.322 137.484C119.159 137.928 119.077 138.406 119.077 138.919V150.014H111.797V129.259H118.027L118.482 131.079ZM137.637 129.259V150.014H130.357V129.259H137.637ZM137.637 121.139V127.159H130.357V121.139H137.637ZM148.72 129.259L149.315 130.729C150.341 129.983 151.438 129.434 152.605 129.084C153.795 128.734 155.078 128.559 156.455 128.559C157.995 128.559 159.43 128.839 160.76 129.399C162.113 129.936 163.28 130.694 164.26 131.674C165.263 132.654 166.045 133.833 166.605 135.209C167.188 136.563 167.48 138.056 167.48 139.689C167.48 141.276 167.211 142.734 166.675 144.064C166.138 145.394 165.38 146.549 164.4 147.529C163.42 148.509 162.253 149.279 160.9 149.839C159.546 150.399 158.053 150.691 156.42 150.714C155.206 150.738 154.04 150.574 152.92 150.224C151.8 149.898 150.761 149.396 149.805 148.719V158.099H142.525V129.259H148.72ZM155.335 144.694C156.805 144.694 157.983 144.228 158.87 143.294C159.756 142.361 160.2 141.159 160.2 139.689C160.2 138.149 159.756 136.924 158.87 136.014C157.983 135.081 156.805 134.614 155.335 134.614C153.865 134.614 152.686 135.081 151.8 136.014C150.913 136.924 150.47 138.149 150.47 139.689C150.47 141.159 150.913 142.361 151.8 143.294C152.686 144.228 153.865 144.694 155.335 144.694ZM180.99 129.259H185.75V135.279H180.99V142.139C180.99 142.699 181.153 143.154 181.48 143.504C181.807 143.831 182.262 143.994 182.845 143.994H186.1V150.014H180.15C179.263 150.014 178.435 149.863 177.665 149.559C176.895 149.279 176.207 148.871 175.6 148.334C175.017 147.798 174.55 147.144 174.2 146.374C173.873 145.628 173.71 144.776 173.71 143.819V135.279H169.93V129.259H173.71V122.119H180.99V129.259Z" fill="#F9F7F7"/>
</svg>
